<?xml version="1.0" encoding="UTF-8"?>
<svg width="16px" height="16px" viewBox="0 0 16 16" version="1.1" xmlns="http://www.w3.org/2000/svg" xmlns:xlink="http://www.w3.org/1999/xlink">
    <title>Untitled 8</title>
    <defs>
        <polygon id="path-1" points="0.275437037 0.141424023 12.7614815 0.141424023 12.7614815 5.6296 0.275437037 5.6296"></polygon>
        <polygon id="path-3" points="0.275437037 0.141424023 12.7614815 0.141424023 12.7614815 5.6296 0.275437037 5.6296"></polygon>
    </defs>
    <g id="Page-1" stroke="none" stroke-width="1" fill="none" fill-rule="evenodd">
        <g id="group">
            <g id="Group-3" transform="translate(1.481481, 10.370370)">
                <g id="Fill-1-Clipped">
                    <mask id="mask-2" fill="white">
                        <use xlink:href="#path-1"></use>
                    </mask>
                    <g id="path-1"></g>
                    <path d="M9.63484444,0.260118519 C9.18802963,0.0707851852 8.67306667,0.108414815 8.26447407,0.369748148 C7.76017778,0.692118519 7.16136296,0.879674074 6.5184,0.879674074 C5.87543704,0.879674074 5.27691852,0.692118519 4.77262222,0.369748148 C4.36402963,0.108414815 3.84906667,0.0707851852 3.40225185,0.260118519 C2.17232593,0.781303704 1.09973333,1.60174815 0.275437037,2.6296 C1.74180741,4.45774815 3.99277037,5.6296 6.5184,5.6296 C9.04432593,5.6296 11.2952889,4.45774815 12.7616593,2.6296 C11.937363,1.60174815 10.8644741,0.781303704 9.63484444,0.260118519" id="Fill-1" fill="#1BA9F5" fill-rule="nonzero" mask="url(#mask-2)"></path>
                </g>
            </g>
            <g id="Group-6" transform="translate(1.481481, 10.370370)">
                <g id="Fill-4-Clipped">
                    <mask id="mask-4" fill="white">
                        <use xlink:href="#path-3"></use>
                    </mask>
                    <g id="path-3"></g>
                    <path d="M9.63484444,0.260118519 C9.18802963,0.0707851852 8.67306667,0.108414815 8.26447407,0.369748148 C7.76017778,0.692118519 7.16136296,0.879674074 6.5184,0.879674074 C5.87543704,0.879674074 5.27691852,0.692118519 4.77262222,0.369748148 C4.36402963,0.108414815 3.84906667,0.0707851852 3.40225185,0.260118519 C2.17232593,0.781303704 1.09973333,1.60174815 0.275437037,2.6296 C1.74180741,4.45774815 3.99277037,5.6296 6.5184,5.6296 C9.04432593,5.6296 11.2952889,4.45774815 12.7616593,2.6296 C11.937363,1.60174815 10.8644741,0.781303704 9.63484444,0.260118519" id="Fill-4" fill="#1BA9F5" fill-rule="nonzero" mask="url(#mask-4)"></path>
                </g>
            </g>
            <path d="M8,0 C5.47437037,0 3.22340741,1.17185185 1.75703704,3 C2.58133333,4.02785185 3.65392593,4.8482963 4.88355556,5.36948148 C5.33037037,5.55881481 5.84562963,5.52118519 6.25392593,5.25985185 C6.75851852,4.93748148 7.35703704,4.74992593 8,4.74992593 C8.64296296,4.74992593 9.24148148,4.93748148 9.74607407,5.25985185 C10.1543704,5.52118519 10.6696296,5.55881481 11.1164444,5.36948148 C12.3460741,4.8482963 13.4186667,4.02785185 14.242963,3 C12.7765926,1.17185185 10.5256296,0 8,0" id="Fill-7" fill="#0077CC" fill-rule="nonzero"></path>
            <path d="M9.75001481,8 C9.75001481,8.96651852 8.96631111,9.74992593 8.00008889,9.74992593 C7.03357037,9.74992593 6.24986667,8.96651852 6.24986667,8 C6.24986667,7.03348148 7.03357037,6.25007407 8.00008889,6.25007407 C8.96631111,6.25007407 9.75001481,7.03348148 9.75001481,8" id="Fill-9" fill="#343741" fill-rule="nonzero"></path>
            <path d="M4.88367407,5.36951111 C3.65404444,4.84832593 2.58115556,4.02788148 1.75685926,3.00002963 C1.75685926,2.99973333 1.75715556,2.99973333 1.75715556,2.99943704 C0.657896296,4.36891852 0.000118518519,6.10728889 0.000118518519,8.00002963 C0.000118518519,9.33899259 0.330785185,10.6003259 0.912414815,11.7090667 C1.84841481,10.6557333 3.01167407,9.81484444 4.3056,9.2664 C4.51034074,9.17988148 4.7218963,9.11914074 4.9378963,9.08002963 C4.81819259,8.74165926 4.75004444,8.37928889 4.75004444,8.00002963 C4.75004444,6.79765926 5.40456296,5.75054815 6.37493333,5.18847407 C6.33434074,5.21188148 6.29345185,5.2346963 6.25404444,5.25988148 C5.84545185,5.52121481 5.33048889,5.55884444 4.88367407,5.36951111" id="Fill-11" fill="#343741" fill-rule="nonzero"></path>
        </g>
    </g>
</svg>