<?xml version="1.0" encoding="UTF-8"?>
<svg width="15px" height="16px" viewBox="0 0 15 16" version="1.1" xmlns="http://www.w3.org/2000/svg" xmlns:xlink="http://www.w3.org/1999/xlink">
    <title>Untitled 9</title>
    <g id="Page-1" stroke="none" stroke-width="1" fill="none" fill-rule="evenodd">
        <g id="group" fill-rule="nonzero">
            <path d="M11.1163259,10.6304889 C10.6695111,10.4411556 10.1545481,10.4787852 9.74595556,10.7401185 C9.24165926,11.0624889 8.64284444,11.2500444 7.99988148,11.2500444 C7.35691852,11.2500444 6.7584,11.0624889 6.2541037,10.7401185 C5.84551111,10.4787852 5.33054815,10.4411556 4.88373333,10.6304889 C3.65380741,11.1516741 2.58121481,11.9721185 1.75691852,12.9999704 C3.22328889,14.8281185 5.47425185,15.9999704 7.99988148,15.9999704 C10.5258074,15.9999704 12.7767704,14.8281185 14.2431407,12.9999704 C13.4188444,11.9721185 12.3459556,11.1516741 11.1163259,10.6304889" id="Fill-1" fill="#1BA9F5"></path>
            <path d="M11.1163259,10.6304889 C10.6695111,10.4411556 10.1545481,10.4787852 9.74595556,10.7401185 C9.24165926,11.0624889 8.64284444,11.2500444 7.99988148,11.2500444 C7.35691852,11.2500444 6.7584,11.0624889 6.2541037,10.7401185 C5.84551111,10.4787852 5.33054815,10.4411556 4.88373333,10.6304889 C3.65380741,11.1516741 2.58121481,11.9721185 1.75691852,12.9999704 C3.22328889,14.8281185 5.47425185,15.9999704 7.99988148,15.9999704 C10.5258074,15.9999704 12.7767704,14.8281185 14.2431407,12.9999704 C13.4188444,11.9721185 12.3459556,11.1516741 11.1163259,10.6304889" id="Fill-4" fill="#00BFB3"></path>
            <path d="M8,0 C5.47437037,0 3.22340741,1.17185185 1.75703704,3 C2.58133333,4.02785185 3.65392593,4.8482963 4.88355556,5.36948148 C5.33037037,5.55881481 5.84562963,5.52118519 6.25392593,5.25985185 C6.75851852,4.93748148 7.35703704,4.74992593 8,4.74992593 C8.64296296,4.74992593 9.24148148,4.93748148 9.74607407,5.25985185 C10.1543704,5.52118519 10.6696296,5.55881481 11.1164444,5.36948148 C12.3460741,4.8482963 13.4186667,4.02785185 14.242963,3 C12.7765926,1.17185185 10.5256296,0 8,0" id="Fill-7" fill="#0077CC"></path>
            <path d="M4.88367407,5.36951111 C3.65404444,4.84832593 2.58115556,4.02788148 1.75685926,3.00002963 C1.75685926,2.99973333 1.75715556,2.99973333 1.75715556,2.99943704 C0.657896296,4.36891852 0.000118518519,6.10728889 0.000118518519,8.00002963 C0.000118518519,9.33899259 0.330785185,10.6003259 0.912414815,11.7090667 C1.84841481,10.6557333 3.01167407,9.81484444 4.3056,9.2664 C4.51034074,9.17988148 4.7218963,9.11914074 4.9378963,9.08002963 C4.81819259,8.74165926 4.75004444,8.37928889 4.75004444,8.00002963 C4.75004444,6.79765926 5.40456296,5.75054815 6.37493333,5.18847407 C6.33434074,5.21188148 6.29345185,5.2346963 6.25404444,5.25988148 C5.84545185,5.52121481 5.33048889,5.55884444 4.88367407,5.36951111" id="Fill-9" fill="#343741"></path>
        </g>
    </g>
</svg>