<?xml version="1.0" encoding="UTF-8"?>
<svg width="46px" height="30px" viewBox="0 0 46 30" version="1.1" xmlns="http://www.w3.org/2000/svg" xmlns:xlink="http://www.w3.org/1999/xlink">
    <!-- Generator: Sketch 59 (86127) - https://sketch.com -->
    <title>caution</title>
    <desc>Created with Sketch.</desc>
    <g id="caution" stroke="none" stroke-width="1" fill="none" fill-rule="evenodd">
        <path d="M6.54473808,24.6455941 C6.3423235,22.9659082 5.07101789,22 3.38778086,22 C1.46661792,22 -3.41060513e-13,23.3565328 -3.41060513e-13,25.7357919 C-3.41060513e-13,28.1079487 1.44175999,29.4715838 3.38778086,29.4715838 C5.25212567,29.4715838 6.37783483,28.2322384 6.54473808,26.8934612 L4.98934183,26.886359 C4.84374538,27.6640571 4.23295051,28.1114999 3.41263879,28.1114999 C2.30823644,28.1114999 1.55894738,27.2911881 1.55894738,25.7357919 C1.55894738,24.2230092 2.29758304,23.3600839 3.42329219,23.3600839 C4.26491071,23.3600839 4.87215444,23.8465891 4.98934183,24.6455941 L6.54473808,24.6455941 Z M8.90269755,29.3721521 L9.44246976,27.713773 L12.066757,27.713773 L12.6065292,29.3721521 L14.2542549,29.3721521 L11.7471551,22.0994317 L9.76562286,22.0994317 L7.25497184,29.3721521 L8.90269755,29.3721521 Z M9.83309439,26.51349 L10.7279799,23.761362 L10.784798,23.761362 L11.6796835,26.51349 L9.83309439,26.51349 Z M19.6306774,22.0994317 L19.6306774,26.8543988 C19.6306774,27.6320969 19.0021269,28.1043976 18.1427527,28.1043976 C17.2940319,28.1043976 16.6654814,27.6320969 16.6654814,26.8543988 L16.6654814,22.0994317 L15.1278408,22.0994317 L15.1278408,26.9076658 C15.1278408,28.5553915 16.3778396,29.4751349 18.1427527,29.4751349 C19.9005635,29.4751349 21.1576646,28.5553915 21.1576646,26.9076658 L21.1576646,22.0994317 L19.6306774,22.0994317 Z M22.1448865,23.3671862 L24.3714469,23.3671862 L24.3714469,29.3721521 L25.8913318,29.3721521 L25.8913318,23.3671862 L28.1178922,23.3671862 L28.1178922,22.0994317 L22.1448865,22.0994317 L22.1448865,23.3671862 Z M30.6427541,22.0994317 L29.1051135,22.0994317 L29.1051135,29.3721521 L30.6427541,29.3721521 L30.6427541,22.0994317 Z M38.5937435,25.7357919 C38.5937435,23.3565328 37.1164722,22 35.188207,22 C33.2492884,22 31.7826705,23.3565328 31.7826705,25.7357919 C31.7826705,28.1043976 33.2492884,29.4715838 35.188207,29.4715838 C37.1164722,29.4715838 38.5937435,28.115051 38.5937435,25.7357919 Z M37.0347961,25.7357919 C37.0347961,27.2769836 36.3032627,28.1114999 35.188207,28.1114999 C34.0696001,28.1114999 33.3416178,27.2769836 33.3416178,25.7357919 C33.3416178,24.1946002 34.0696001,23.3600839 35.188207,23.3600839 C36.3032627,23.3600839 37.0347961,24.1946002 37.0347961,25.7357919 Z M45.8132043,22.0994317 L45.8132043,29.3721521 L44.4850806,29.3721521 L41.3210211,24.7947417 L41.2677541,24.7947417 L41.2677541,29.3721521 L39.7301135,29.3721521 L39.7301135,22.0994317 L41.079544,22.0994317 L44.2187456,26.673291 L44.282666,26.673291 L44.282666,22.0994317 L45.8132043,22.0994317 Z" id="CAUTION" fill="#000000" fill-rule="nonzero"></path>
        <g id="warning" transform="translate(14.000000, 0.000000)" fill="#000000" fill-rule="nonzero">
            <path d="M7.4,9 L7,4 L9,4 L8.6,9 L7.4,9 L7.4,9 Z M8,12 C7.7,12 7.5,11.9 7.3,11.7 C7.1,11.5 7,11.3 7,11 C7,10.7 7.1,10.5 7.3,10.3 C7.5,10.1 7.7,10 8,10 C8.3,10 8.5,10.1 8.7,10.3 C8.9,10.5 9,10.7 9,11 C9,11.3 8.9,11.5 8.7,11.7 C8.5,11.9 8.3,12 8,12 Z" id="Shape"></path>
            <path d="M10.9,1 L10.9,1 L15,5.1 L15,10.9 L10.9,15 L5.1,15 L1,10.9 L1,5.1 L5.1,1 L10.9,1 M10.9,0 L5.1,0 C4.8,0 4.6,0.1 4.4,0.3 L0.3,4.4 C0.1,4.6 0,4.8 0,5.1 L0,10.9 C0,11.2 0.1,11.4 0.3,11.6 L4.4,15.7 C4.6,15.9 4.8,16 5.1,16 L10.9,16 C11.2,16 11.4,15.9 11.6,15.7 L15.7,11.6 C15.9,11.4 16,11.2 16,10.9 L16,5.1 C16,4.8 15.9,4.6 15.7,4.4 L11.6,0.3 C11.4,0.1 11.2,0 10.9,0 L10.9,0 Z" id="Shape"></path>
        </g>
    </g>
</svg>