<svg height="22" viewBox="0 0 110 115" width="15" xmlns="http://www.w3.org/2000/svg" xmlns:xlink="http://www.w3.org/1999/xlink"><mask id="a" fill="#fff"><path d="m.16791273 55.5112904c0 30.4000365 24.85679667 55.1342676 55.40747417 55.1342676 30.5506774 0 55.4074741-24.7342311 55.4074741-55.1342676 0-30.402261-24.8567967-55.1320433-55.4074741-55.1320433-30.5506775 0-55.40747417 24.7297823-55.40747417 55.1320433m40.67760337 0c0-8.0816137 6.6395077-14.6883829 14.7589326-14.6883829 8.1216604 0 14.6985734 6.6067692 14.6985734 14.6883829s-6.6059748 14.6572399-14.7276352 14.6572399c-8.1216605 0-14.7298708-6.5756262-14.7298708-14.6572399" fill="#fff" fill-rule="evenodd"/></mask><mask id="b" fill="#fff"><path d="m.16791273 55.5112904c0 30.4000365 24.85679667 55.1342676 55.40747417 55.1342676 30.5506774 0 55.4074741-24.7342311 55.4074741-55.1342676 0-30.402261-24.8567967-55.1320433-55.4074741-55.1320433-30.5506775 0-55.40747417 24.7297823-55.40747417 55.1320433m40.67760337 0c0-8.0816137 6.6395077-14.6883829 14.7589326-14.6883829 8.1216604 0 14.6985734 6.6067692 14.6985734 14.6883829s-6.6059748 14.6572399-14.7276352 14.6572399c-8.1216605 0-14.7298708-6.5756262-14.7298708-14.6572399" fill="#fff" fill-rule="evenodd"/></mask><mask id="c" fill="#fff"><path d="m.16791273 55.5112904c0 30.4000365 24.85679667 55.1342676 55.40747417 55.1342676 30.5506774 0 55.4074741-24.7342311 55.4074741-55.1342676 0-30.402261-24.8567967-55.1320433-55.4074741-55.1320433-30.5506775 0-55.40747417 24.7297823-55.40747417 55.1320433m40.67760337 0c0-8.0816137 6.6395077-14.6883829 14.7589326-14.6883829 8.1216604 0 14.6985734 6.6067692 14.6985734 14.6883829s-6.6059748 14.6572399-14.7276352 14.6572399c-8.1216605 0-14.7298708-6.5756262-14.7298708-14.6572399" fill="#fff" fill-rule="evenodd"/></mask><mask id="d" fill="#fff"><path d="m.16791273 55.5112904c0 30.4000365 24.85679667 55.1342676 55.40747417 55.1342676 30.5506774 0 55.4074741-24.7342311 55.4074741-55.1342676 0-30.402261-24.8567967-55.1320433-55.4074741-55.1320433-30.5506775 0-55.40747417 24.7297823-55.40747417 55.1320433m40.67760337 0c0-8.0816137 6.6395077-14.6883829 14.7589326-14.6883829 8.1216604 0 14.6985734 6.6067692 14.6985734 14.6883829s-6.6059748 14.6572399-14.7276352 14.6572399c-8.1216605 0-14.7298708-6.5756262-14.7298708-14.6572399" fill="#fff" fill-rule="evenodd"/></mask><mask id="e" fill="#fff"><path d="m.16791273 55.5112904c0 30.4000365 24.85679667 55.1342676 55.40747417 55.1342676 30.5506774 0 55.4074741-24.7342311 55.4074741-55.1342676 0-30.402261-24.8567967-55.1320433-55.4074741-55.1320433-30.5506775 0-55.40747417 24.7297823-55.40747417 55.1320433m40.67760337 0c0-8.0816137 6.6395077-14.6883829 14.7589326-14.6883829 8.1216604 0 14.6985734 6.6067692 14.6985734 14.6883829s-6.6059748 14.6572399-14.7276352 14.6572399c-8.1216605 0-14.7298708-6.5756262-14.7298708-14.6572399" fill="#fff" fill-rule="evenodd"/></mask><g fill="#6eadc1" fill-rule="evenodd"><path d="m55.6520653 70.1709772c-5.8235412 20.8346804-23.6227871 36.6953758-45.5622243 39.7740858-.25261426 1.939765-.42698517 3.901775-.42698517 5.908275 0 25.230296 20.55564757 45.684586 45.91320167 45.684586 25.3553186 0 45.9109665-20.45429 45.9109665-45.684586 0-25.2058251-20.5154084-45.6400952-45.8349587-45.6823608" fill-opacity=".7" mask="url(#a)"/><path d="m55.7242728 40.8180136c25.2882529-.0800821 45.7634212-20.4965561 45.7634212-45.67791225 0-25.23029515-20.5556472-45.68458575-45.9109658-45.68458575-25.3575542 0-45.91320171 20.4542906-45.91320171 45.68458575 0 1.91529573.15648671 3.79277493.38674571 5.64578461 22.0467424 3.07870998 39.9197606 19.06175274 45.6740006 40.03212764" fill-opacity=".7" mask="url(#b)"/><path d="m55.5756104 70.1671956c.0245908 0 .0514171.004449.0760078.004449 1.3189595-4.7137185 2.0365628-9.6721322 2.0365628-14.804057 0-5.0384957-.6930126-9.9123783-1.965026-14.5504638-.0491815.0022245-.0983631.008898-.1475446.008898-23.430532 0-42.7253438-17.4779077-45.5264559-40.04102564-2.53732032-.35369572-5.12829319-.54945185-7.76621207-.54945185-30.60209453 0-55.40747413 24.68306779-55.40747413 55.13204329 0 30.4512 24.8053796 55.1342674 55.40747413 55.1342674 2.65133203 0 5.25571805-.19798 7.80645147-.556125 2.9173594-22.4340968 22.1451055-39.7785344 45.4862165-39.7785344" mask="url(#c)"/><path d="m55.6520653 70.1709772c-.0245907 0-.051417-.004449-.0760078-.004449-23.341111 0-42.5688571 17.3466622-45.4862165 39.7785348 21.9394372-3.07871 39.7386831-18.9394054 45.5622243-39.7740858" fill-opacity=".5" mask="url(#d)"/><path d="m55.5756104 40.8253545c.0491815 0 .0983631-.0066736.1475446-.0066736-5.7520045-20.9703749-23.6272582-36.95341761-45.6740005-40.03212759 2.8011121 22.56089349 22.0959239 40.03880119 45.5264559 40.03880119" fill-opacity=".4" mask="url(#e)"/></g></svg>