<?xml version="1.0" encoding="utf-8"?>
<!-- Generator: Adobe Illustrator 23.0.2, SVG Export Plug-In . SVG Version: 6.00 Build 0)  -->
<svg version="1.1" id="Layer_1" xmlns="http://www.w3.org/2000/svg" xmlns:xlink="http://www.w3.org/1999/xlink" x="0px" y="0px"
	 viewBox="0 0 16 16" style="enable-background:new 0 0 16 16;" xml:space="preserve">
<title>important</title>
<desc>Created with Sketch.</desc>
<g id="important">
	<g transform="translate(10.000000, 25.000000)">
		<g id="Shape" transform="translate(21.000000, 0.000000)">
			<path d="M-23-24l7,14h-14L-23-24 M-23-25c-0.4,0-0.7,0.2-0.9,0.6l-7,14c-0.2,0.3-0.1,0.7,0,1C-30.8-9.1-30.3-9-30-9h14
				c0.3,0,0.7-0.2,0.9-0.5c0.2-0.3,0.2-0.7,0-1l-7-14C-22.3-24.8-22.6-25-23-25L-23-25z"/>
			<path d="M-23.6-14l-0.4-5h2l-0.4,5H-23.6L-23.6-14z M-23-11c-0.3,0-0.5-0.1-0.7-0.3c-0.2-0.2-0.3-0.4-0.3-0.7s0.1-0.5,0.3-0.7
				c0.2-0.2,0.4-0.3,0.7-0.3c0.3,0,0.5,0.1,0.7,0.3c0.2,0.2,0.3,0.4,0.3,0.7s-0.1,0.5-0.3,0.7C-22.5-11.1-22.7-11-23-11z"/>
		</g>
	</g>
</g>
</svg>
