<?xml version="1.0" encoding="UTF-8"?>
<svg width="61px" height="31px" viewBox="0 0 61 31" version="1.1" xmlns="http://www.w3.org/2000/svg" xmlns:xlink="http://www.w3.org/1999/xlink">
    <!-- Generator: Sketch 59 (86127) - https://sketch.com -->
    <title>important</title>
    <desc>Created with Sketch.</desc>
    <g id="important" stroke="none" stroke-width="1" fill="none" fill-rule="evenodd">
        <path d="M1.53764058,23.0994317 L1.70530257e-13,23.0994317 L1.70530257e-13,30.3721521 L1.53764058,30.3721521 L1.53764058,23.0994317 Z M2.80539773,23.0994317 L2.80539773,30.3721521 L4.29687358,30.3721521 L4.29687358,25.6207361 L4.35724284,25.6207361 L6.23934332,30.3366407 L7.25496735,30.3366407 L9.13706783,25.6384918 L9.19743709,25.6384918 L9.19743709,30.3721521 L10.6889129,30.3721521 L10.6889129,23.0994317 L8.79260793,23.0994317 L6.78976893,27.9857907 L6.70454174,27.9857907 L4.70170274,23.0994317 L2.80539773,23.0994317 Z M12.0454545,30.3721521 L13.5830951,30.3721521 L13.5830951,28.0141998 L14.8757075,28.0141998 C16.5482912,28.0141998 17.5213016,27.0163314 17.5213016,25.563918 C17.5213016,24.1186069 16.5660468,23.0994317 14.91477,23.0994317 L12.0454545,23.0994317 L12.0454545,30.3721521 Z M13.5830951,26.7819566 L13.5830951,24.3565328 L14.620026,24.3565328 C15.5078092,24.3565328 15.9374963,24.8394869 15.9374963,25.563918 C15.9374963,26.284798 15.5078092,26.7819566 14.6271282,26.7819566 L13.5830951,26.7819566 Z M25.2059595,26.7357919 C25.2059595,24.3565328 23.7286882,23 21.800423,23 C19.8615044,23 18.3948865,24.3565328 18.3948865,26.7357919 C18.3948865,29.1043976 19.8615044,30.4715838 21.800423,30.4715838 C23.7286882,30.4715838 25.2059595,29.115051 25.2059595,26.7357919 Z M23.6470122,26.7357919 C23.6470122,28.2769836 22.9154788,29.1114999 21.800423,29.1114999 C20.6818161,29.1114999 19.9538339,28.2769836 19.9538339,26.7357919 C19.9538339,25.1946002 20.6818161,24.3600839 21.800423,24.3600839 C22.9154788,24.3600839 23.6470122,25.1946002 23.6470122,26.7357919 Z M26.3423295,30.3721521 L27.8799701,30.3721521 L27.8799701,27.7940295 L29.0021281,27.7940295 L30.3799677,30.3721521 L32.0774093,30.3721521 L30.5326665,27.5454502 C31.3600804,27.1903369 31.8181766,26.4694569 31.8181766,25.4751397 C31.8181766,24.0298286 30.8629218,23.0994317 29.211645,23.0994317 L26.3423295,23.0994317 L26.3423295,30.3721521 Z M27.8799701,26.5582352 L27.8799701,24.3565328 L28.916901,24.3565328 C29.8046842,24.3565328 30.2343713,24.7507086 30.2343713,25.4751397 C30.2343713,26.1960197 29.8046842,26.5582352 28.9240032,26.5582352 L27.8799701,26.5582352 Z M32.6278412,24.3671862 L34.8544015,24.3671862 L34.8544015,30.3721521 L36.3742865,30.3721521 L36.3742865,24.3671862 L38.6008468,24.3671862 L38.6008468,23.0994317 L32.6278412,23.0994317 L32.6278412,24.3671862 Z M40.8416181,30.3721521 L41.3813903,28.713773 L44.0056776,28.713773 L44.5454498,30.3721521 L46.1931755,30.3721521 L43.6860756,23.0994317 L41.7045434,23.0994317 L39.1938924,30.3721521 L40.8416181,30.3721521 Z M41.772015,27.51349 L42.6669005,24.761362 L42.7237186,24.761362 L43.6186041,27.51349 L41.772015,27.51349 Z M53.1498522,23.0994317 L51.6193138,23.0994317 L51.6193138,27.673291 L51.5553934,27.673291 L48.4161919,23.0994317 L47.0667614,23.0994317 L47.0667614,30.3721521 L48.6044019,30.3721521 L48.6044019,25.7947417 L48.6576689,25.7947417 L51.8217284,30.3721521 L53.1498522,30.3721521 L53.1498522,23.0994317 Z M54.1406253,24.3671862 L54.1406253,23.0994317 L60.1136309,23.0994317 L60.1136309,24.3671862 L57.8870706,24.3671862 L57.8870706,30.3721521 L56.3671856,30.3721521 L56.3671856,24.3671862 L54.1406253,24.3671862 Z" id="IMPORTANT" fill="#000000" fill-rule="nonzero"></path>
        <g transform="translate(21.000000, 0.000000)" fill="#000000" fill-rule="nonzero" id="Shape">
            <path d="M9,1 L16,15 L2,15 L9,1 M9,0 C8.6,0 8.3,0.2 8.1,0.6 L1.1,14.6 C0.9,14.9 1,15.3 1.1,15.6 C1.2,15.9 1.7,16 2,16 L16,16 C16.3,16 16.7,15.8 16.9,15.5 C17.1,15.2 17.1,14.8 16.9,14.5 L9.9,0.5 C9.7,0.2 9.4,0 9,0 L9,0 Z"></path>
            <path d="M8.4,11 L8,6 L10,6 L9.6,11 L8.4,11 L8.4,11 Z M9,14 C8.7,14 8.5,13.9 8.3,13.7 C8.1,13.5 8,13.3 8,13 C8,12.7 8.1,12.5 8.3,12.3 C8.5,12.1 8.7,12 9,12 C9.3,12 9.5,12.1 9.7,12.3 C9.9,12.5 10,12.7 10,13 C10,13.3 9.9,13.5 9.7,13.7 C9.5,13.9 9.3,14 9,14 Z"></path>
        </g>
    </g>
</svg>