<?xml version="1.0" encoding="utf-8"?>
<!-- Generator: Adobe Illustrator 23.0.2, SVG Export Plug-In . SVG Version: 6.00 Build 0)  -->
<svg version="1.1" id="Layer_1" xmlns="http://www.w3.org/2000/svg" xmlns:xlink="http://www.w3.org/1999/xlink" x="0px" y="0px"
	 viewBox="0 0 16 16" style="enable-background:new 0 0 16 16;" xml:space="preserve">
<title>note</title>
<desc>Created with Sketch.</desc>
<g id="note">
	<g id="flag" transform="translate(8.000000, 0.000000)">
		<path id="Shape" d="M0.2,8.5c1.5-0.6,3.1-0.6,4.6,0c0.2,0.1,0.3,0,0.5,0C5.4,8.3,5.5,8.2,5.5,8V2c0-0.2-0.1-0.4-0.3-0.4
			C3.8,0.8,2,0.8-0.2,1.5c-1.9,0.6-3.4,0.6-4.6,0c-0.2-0.1-0.3-0.1-0.5,0S-5.5,1.8-5.5,2v12.5c0,0.2,0.1,0.3,0.2,0.4s0.3,0.1,0.5,0
			s0.2-0.3,0.2-0.4V8.6C-3.1,9.2-1.5,9.1,0.2,8.5z M-4.5,2.7c1.3,0.4,2.9,0.3,4.7-0.3c1.7-0.6,3.2-0.6,4.3-0.2v5
			C2.9,6.8,1.4,6.9-0.2,7.5c-1.5,0.6-2.9,0.6-4.1,0c-0.1,0-0.1-0.1-0.2-0.1V2.7L-4.5,2.7z"/>
	</g>
</g>
</svg>
