<?xml version="1.0" encoding="UTF-8"?>
<svg width="27px" height="28px" viewBox="0 0 27 28" version="1.1" xmlns="http://www.w3.org/2000/svg" xmlns:xlink="http://www.w3.org/1999/xlink">
    <!-- Generator: Sketch 59 (86127) - https://sketch.com -->
    <title>note</title>
    <desc>Created with Sketch.</desc>
    <g id="note" stroke="none" stroke-width="1" fill="none" fill-rule="evenodd">
        <path d="M6.08309079,20.0994317 L4.55255248,20.0994317 L4.55255248,24.673291 L4.48863208,24.673291 L1.34943053,20.0994317 L8.2600593e-13,20.0994317 L8.2600593e-13,27.3721521 L1.53764058,27.3721521 L1.53764058,22.7947417 L1.59090757,22.7947417 L4.75496706,27.3721521 L6.08309079,27.3721521 L6.08309079,20.0994317 Z M14.0340845,23.7357919 C14.0340845,21.3565328 12.5568132,20 10.628548,20 C8.68962941,20 7.22301149,21.3565328 7.22301149,23.7357919 C7.22301149,26.1043976 8.68962941,27.4715838 10.628548,27.4715838 C12.5568132,27.4715838 14.0340845,26.115051 14.0340845,23.7357919 Z M12.4751372,23.7357919 C12.4751372,25.2769836 11.7436038,26.1114999 10.628548,26.1114999 C9.50994112,26.1114999 8.78195886,25.2769836 8.78195886,23.7357919 C8.78195886,22.1946002 9.50994112,21.3600839 10.628548,21.3600839 C11.7436038,21.3600839 12.4751372,22.1946002 12.4751372,23.7357919 Z M14.8934662,21.3671862 L17.1200265,21.3671862 L17.1200265,27.3721521 L18.6399115,27.3721521 L18.6399115,21.3671862 L20.8664718,21.3671862 L20.8664718,20.0994317 L14.8934662,20.0994317 L14.8934662,21.3671862 Z M21.8536932,27.3721521 L21.8536932,20.0994317 L26.7542567,20.0994317 L26.7542567,21.3671862 L23.3913338,21.3671862 L23.3913338,23.1001391 L26.5021262,23.1001391 L26.5021262,24.3678936 L23.3913338,24.3678936 L23.3913338,26.1043976 L26.7684612,26.1043976 L26.7684612,27.3721521 L21.8536932,27.3721521 Z" id="NOTE" fill="#000000" fill-rule="nonzero"></path>
        <g id="flag" transform="translate(8.000000, 0.000000)" fill="#000000" fill-rule="nonzero">
            <path d="M5.686,7.464 C7.233,6.845 8.766,6.845 10.314,7.464 C10.4680397,7.52573318 10.6426717,7.50701674 10.7801303,7.41404183 C10.9175889,7.32106691 11,7.1659494 11,7 L11,1 C11,0.810778403 10.8931705,0.637771276 10.724,0.553 C9.259,-0.18 7.458,-0.18 5.342,0.526 C3.458,1.154 1.925,1.154 0.724,0.553 C0.569006716,0.475332902 0.384842493,0.483495874 0.237328627,0.574571423 C0.0898147619,0.665646973 -2.22044605e-16,0.826635943 -2.22044605e-16,1 L-2.22044605e-16,13.5 C-2.22044605e-16,13.6786328 0.095299457,13.8436963 0.249999997,13.9330127 C0.404700537,14.0223291 0.595299463,14.0223291 0.750000003,13.9330127 C0.904700543,13.8436963 1,13.6786328 1,13.5 L1,7.553 C2.411,8.18 3.983,8.145 5.686,7.464 Z M1,1.741 C2.322,2.161 3.878,2.068 5.658,1.474 C7.4,0.894 8.843,0.85 10,1.322 L10,6.297 C8.44,5.833 6.872,5.913 5.314,6.536 C3.774,7.152 2.422,7.152 1.224,6.553 C1.15449685,6.51808282 1.07778106,6.49993131 1,6.5 L1,1.74 L1,1.741 Z" id="Shape"></path>
        </g>
    </g>
</svg>