<?xml version="1.0" encoding="UTF-8"?>
<svg width="17px" height="30px" viewBox="0 0 17 30" version="1.1" xmlns="http://www.w3.org/2000/svg" xmlns:xlink="http://www.w3.org/1999/xlink">
    <!-- Generator: Sketch 59 (86127) - https://sketch.com -->
    <title>tip</title>
    <desc>Created with Sketch.</desc>
    <g id="tip" stroke="none" stroke-width="1" fill="none" fill-rule="evenodd">
        <path d="M1,23.2677545 L3.22656038,23.2677545 L3.22656038,29.2727203 L4.74644529,29.2727203 L4.74644529,23.2677545 L6.97300567,23.2677545 L6.97300567,22 L1,22 L1,23.2677545 Z M9.49786759,22 L7.96022701,22 L7.96022701,29.2727203 L9.49786759,29.2727203 L9.49786759,22 Z M10.7656247,29.2727203 L12.3032653,29.2727203 L12.3032653,26.914768 L13.5958777,26.914768 C15.2684614,26.914768 16.2414718,25.9168997 16.2414718,24.4644863 C16.2414718,23.0191752 15.286217,22 13.6349402,22 L10.7656247,22 L10.7656247,29.2727203 Z M12.3032653,25.6825249 L12.3032653,23.2571011 L13.3401961,23.2571011 C14.2279794,23.2571011 14.6576665,23.7400552 14.6576665,24.4644863 C14.6576665,25.1853663 14.2279794,25.6825249 13.3472984,25.6825249 L12.3032653,25.6825249 Z" id="TIP" fill="#000000" fill-rule="nonzero"></path>
        <g fill="#000000" fill-rule="nonzero" id="Shape">
            <path d="M7.5,11.5 L7.5,8 L6.2,8 L6.2,7 L8.6,7 L8.6,10.5 L9.7,10.5 L9.7,11.5 C9.8,11.5 7.5,11.5 7.5,11.5 Z M7.2,5.3 C7.2,5.1 7.3,4.9 7.4,4.7 C7.6,4.6 7.8,4.5 8,4.5 C8.3,4.5 8.5,4.6 8.6,4.7 C8.7,4.9 8.8,5 8.8,5.3 C8.8,5.5 8.7,5.7 8.6,5.9 C8.5,6 8.3,6.1 8,6.1 C7.8,6.1 7.6,6 7.5,5.9 C7.3,5.7 7.2,5.5 7.2,5.3 Z M8,15 C11.9,15 15,11.9 15,8 C15,4.1 11.9,1 8,1 C4.1,1 1,4.1 1,8 C1,11.9 4.1,15 8,15 Z M8,16 C3.6,16 0,12.4 0,8 C0,3.6 3.6,0 8,0 C12.4,0 16,3.6 16,8 C16,12.4 12.4,16 8,16 Z"></path>
        </g>
    </g>
</svg>