<?xml version="1.0" encoding="utf-8"?>
<!-- Generator: Adobe Illustrator 23.0.2, SVG Export Plug-In . SVG Version: 6.00 Build 0)  -->
<svg version="1.1" id="Layer_1" xmlns="http://www.w3.org/2000/svg" xmlns:xlink="http://www.w3.org/1999/xlink" x="0px" y="0px"
	 viewBox="0 0 16 16" style="enable-background:new 0 0 16 16;" xml:space="preserve">
<title>tip</title>
<desc>Created with Sketch.</desc>
<g id="tip">
	<g transform="translate(32.000000, 25.000000)">
		<g id="Shape">
			<path d="M-24.5-13.5V-17h-1.3v-1h2.4v3.5h1.1v1C-22.2-13.5-24.5-13.5-24.5-13.5z M-24.8-19.7c0-0.2,0.1-0.4,0.2-0.6
				c0.2-0.1,0.4-0.2,0.6-0.2c0.3,0,0.5,0.1,0.6,0.2c0.1,0.2,0.2,0.3,0.2,0.6c0,0.2-0.1,0.4-0.2,0.6c-0.1,0.1-0.3,0.2-0.6,0.2
				c-0.2,0-0.4-0.1-0.5-0.2C-24.7-19.3-24.8-19.5-24.8-19.7z M-24-10c3.9,0,7-3.1,7-7s-3.1-7-7-7s-7,3.1-7,7S-27.9-10-24-10z M-24-9
				c-4.4,0-8-3.6-8-8s3.6-8,8-8s8,3.6,8,8S-19.6-9-24-9z"/>
		</g>
	</g>
</g>
</svg>
