<?xml version="1.0" encoding="utf-8"?>
<!-- Generator: Adobe Illustrator 23.0.2, SVG Export Plug-In . SVG Version: 6.00 Build 0)  -->
<svg version="1.1" id="Layer_1" xmlns="http://www.w3.org/2000/svg" xmlns:xlink="http://www.w3.org/1999/xlink" x="0px" y="0px"
	 viewBox="0 0 16 16" style="enable-background:new 0 0 16 16;" xml:space="preserve">
<path id="Shape" d="M7.4,9L7,4h2L8.6,9H7.4L7.4,9z M8,12c-0.3,0-0.5-0.1-0.7-0.3C7.1,11.5,7,11.3,7,11s0.1-0.5,0.3-0.7
	C7.5,10.1,7.7,10,8,10s0.5,0.1,0.7,0.3S9,10.7,9,11s-0.1,0.5-0.3,0.7S8.3,12,8,12z"/>
<path d="M10.9,1L10.9,1L15,5.1v5.8L10.9,15H5.1L1,10.9V5.1L5.1,1H10.9 M10.9,0H5.1C4.8,0,4.6,0.1,4.4,0.3L0.3,4.4
	C0.1,4.6,0,4.8,0,5.1v5.8c0,0.3,0.1,0.5,0.3,0.7l4.1,4.1C4.6,15.9,4.8,16,5.1,16h5.8c0.3,0,0.5-0.1,0.7-0.3l4.1-4.1
	c0.2-0.2,0.3-0.4,0.3-0.7V5.1c0-0.3-0.1-0.5-0.3-0.7l-4.1-4.1C11.4,0.1,11.2,0,10.9,0L10.9,0z"/>
</svg>
