<?xml version="1.0" encoding="UTF-8"?>
<svg width="52px" height="22px" viewBox="0 0 52 22" version="1.1" xmlns="http://www.w3.org/2000/svg" xmlns:xlink="http://www.w3.org/1999/xlink">
    <!-- Generator: Sketch 53.2 (72643) - https://sketchapp.com -->
    <title>labels / xpack-tag / hover</title>
    <desc>Created with Sketch.</desc>
    <g id="Links-&amp;-Labels" stroke="none" stroke-width="1" fill="none" fill-rule="evenodd">
        <g id="labelsDocs-/-guidelines" transform="translate(-834.000000, -194.000000)">
            <g id="labels-/-xpack-tag-/-hover" transform="translate(835.000000, 195.000000)">
                <g>
                    <rect id="Rectangle" stroke="#005571" x="0" y="0" width="50" height="20" rx="2"></rect>
                    <path d="M13.3424909,13.8857868 L11.747558,13.8857868 L9.62484738,10.4708122 L7.48473748,13.8857868 L6,13.8857868 L8.81288157,9.5571066 L6.17979242,5.53680203 L7.72252748,5.53680203 L9.68284493,8.69479695 L11.6431624,5.53680203 L13.1394994,5.53680203 L10.489011,9.57994924 L13.3424909,13.8857868 Z M13.7832722,11.3217005 L13.7832722,10.1795685 L16.7643468,10.1795685 L16.7643468,11.3217005 L13.7832722,11.3217005 Z M23.9212455,8.06091371 C23.9212455,8.93274547 23.6312605,9.600886 23.0512821,10.0653553 C22.4713036,10.5298247 21.6458132,10.7620558 20.5747863,10.7620558 L19.6932235,10.7620558 L19.6932235,13.8857868 L18.3070819,13.8857868 L18.3070819,5.53680203 L20.748779,5.53680203 C21.8082064,5.53680203 22.6017984,5.74999787 23.1295788,6.17639594 C23.6573592,6.60279401 23.9212455,7.23096032 23.9212455,8.06091371 Z M19.6932235,9.6142132 L20.4297924,9.6142132 C21.1412327,9.6142132 21.6632055,9.49238701 21.9957264,9.24873096 C22.3282475,9.00507492 22.4945055,8.62436807 22.4945055,8.10659898 C22.4945055,7.62690116 22.3456466,7.26903671 22.0479243,7.03299492 C21.750202,6.79695314 21.2862262,6.67893401 20.6559829,6.67893401 L19.6932235,6.67893401 L19.6932235,9.6142132 Z M29.4832113,13.8857868 L29.2106228,13.0063452 L29.1642247,13.0063452 C28.8549028,13.3908649 28.5436524,13.6526009 28.230464,13.7915609 C27.9172756,13.930521 27.5151632,14 27.0241148,14 C26.3938715,14 25.9018638,13.832489 25.5480769,13.4974619 C25.1942901,13.1624349 25.0173992,12.6884548 25.0173992,12.0755076 C25.0173992,11.4244891 25.2629198,10.9333773 25.7539682,10.6021574 C26.2450167,10.2709374 26.9931777,10.0901017 27.9984738,10.0596447 L29.1062271,10.0253807 L29.1062271,9.68845178 C29.1062271,9.28489645 29.0105321,8.98318628 28.8191392,8.78331219 C28.6277463,8.58343809 28.3309951,8.48350254 27.9288767,8.48350254 C27.6002222,8.48350254 27.2851053,8.5310909 26.9835165,8.62626903 C26.6819276,8.72144717 26.3919428,8.8337557 26.1135531,8.96319797 L25.6727717,8.00380711 C26.0207588,7.8248722 26.4016055,7.6887695 26.8153236,7.59549493 C27.2290415,7.50222034 27.6195545,7.45558376 27.9868742,7.45558376 C28.8027106,7.45558376 29.4184452,7.63070891 29.8340965,7.98096447 C30.2497477,8.33122003 30.4575702,8.88134143 30.4575702,9.63134517 L30.4575702,13.8857868 L29.4832113,13.8857868 Z M27.4532967,12.9720812 C27.9482116,12.9720812 28.345491,12.8359786 28.6451465,12.563769 C28.9448021,12.2915595 29.0946275,11.909901 29.0946275,11.4187817 L29.0946275,10.8705584 L28.2710623,10.9048224 C27.6292195,10.9276651 27.1623438,11.0333112 26.8704212,11.221764 C26.5784988,11.4102167 26.4325397,11.6986021 26.4325397,12.086929 C26.4325397,12.3686562 26.517602,12.5866109 26.6877289,12.7407995 C26.857856,12.8949881 27.1130427,12.9720812 27.4532967,12.9720812 Z M34.9465812,14 C33.9760839,14 33.2385556,13.7211322 32.7339744,13.1633884 C32.2293931,12.6056444 31.9771062,11.8052082 31.9771062,10.7620558 C31.9771062,9.69986779 32.2409925,8.88325159 32.7687729,8.31218274 C33.2965533,7.7411139 34.0592136,7.45558376 35.0567766,7.45558376 C35.7334181,7.45558376 36.3423863,7.57931349 36.8836997,7.82677664 L36.4719169,8.90609137 C35.895805,8.68527809 35.4202298,8.5748731 35.045177,8.5748731 C33.9354848,8.5748731 33.3806472,9.30011965 33.3806472,10.7506345 C33.3806472,11.4587599 33.5188732,11.9907977 33.7953297,12.3467639 C34.0717861,12.7027302 34.4767984,12.8807107 35.0103786,12.8807107 C35.6174227,12.8807107 36.1915927,12.732235 36.732906,12.4352791 L36.732906,13.6059644 C36.489315,13.7468281 36.2292953,13.8477154 35.9528388,13.9086294 C35.6763824,13.9695434 35.3409665,14 34.9465812,14 Z M39.5573871,10.5507614 L40.3287546,9.60279188 L42.265873,7.56979695 L43.8376068,7.56979695 L41.2567155,10.2823604 L44,13.8857868 L42.3992674,13.8857868 L40.3403541,11.1161167 L39.5921856,11.7214467 L39.5921856,13.8857868 L38.2408425,13.8857868 L38.2408425,5 L39.5921856,5 L39.5921856,9.33439086 L39.5225885,10.5507614 L39.5573871,10.5507614 Z" id="X-Pack" fill="#005571" fill-rule="nonzero"></path>
                </g>
            </g>
        </g>
    </g>
</svg>