<?xml version="1.0" encoding="UTF-8"?>
<svg width="60px" height="71px" viewBox="0 0 60 71" version="1.1" xmlns="http://www.w3.org/2000/svg" xmlns:xlink="http://www.w3.org/1999/xlink">
    <!-- Generator: Sketch 55 (78076) - https://sketchapp.com -->
    <title>Combined Shape</title>
    <desc>Created with Sketch.</desc>
    <g id="Symbols" stroke="none" stroke-width="1" fill="none" fill-rule="evenodd">
        <g id="footer-/-default" transform="translate(-150.000000, -580.000000)" fill="#FFFFFF">
            <path d="M157.881176,644.191518 C157.881176,642.750931 157.65,641.733539 157.187647,641.139517 C156.725294,640.545495 155.972294,640.247691 154.928824,640.246634 C153.885176,640.246634 153.101118,640.560112 152.576471,641.187067 C152.051647,641.814021 151.781118,642.815564 151.764706,644.191518 L157.881176,644.191518 Z M158.516471,649.286406 L159.197647,649.215962 L159.245294,650.600193 C157.726235,650.829489 156.193235,650.955409 154.657059,650.97707 C152.964176,650.973548 151.764706,650.48396 151.058824,649.508306 C150.352941,648.532651 150,647.010525 150,644.941751 C150,640.825511 151.638706,638.767303 154.916471,638.767303 C156.501176,638.767303 157.685294,639.20987 158.468824,640.095179 C159.252353,640.980489 159.644647,642.369299 159.645882,644.261963 L159.550588,645.600405 L151.785882,645.600405 C151.785882,646.900104 152.021118,647.862373 152.491765,648.486863 C152.962235,649.111528 153.781765,649.425005 154.95,649.427295 C156.120529,649.427295 157.309412,649.380273 158.516471,649.286406 Z M162.105847,650.885317 L162.105847,635.433348 L163.870553,635.433348 L163.870553,650.885317 L162.105847,650.885317 Z M174.981141,642.548457 L174.981141,648.469304 C174.981141,649.055754 176.445847,649.032859 176.445847,649.032859 L176.355847,650.587918 C175.120553,650.587918 174.089965,650.691824 173.474082,650.096569 C172.140847,650.686716 170.697141,650.986985 169.238788,650.977123 C168.157729,650.977123 167.334141,650.671923 166.7682,650.061347 C166.202259,649.45077 165.919906,648.574266 165.921141,647.432011 C165.921141,646.28958 166.211082,645.447594 166.791141,644.906405 C167.3712,644.365216 168.280553,644.032895 169.519376,643.909794 L173.212906,643.557572 L173.212906,642.548457 C173.212906,641.74997 173.040494,641.178842 172.695847,640.834898 C172.316259,640.476336 171.805906,640.28913 171.284082,640.317132 L166.6482,640.317132 L166.6482,638.767356 L171.176435,638.767356 C172.510553,638.767356 173.479376,639.072556 174.082906,639.683133 C174.686435,640.293709 174.985906,641.248758 174.981141,642.548457 Z M167.735259,647.336911 C167.735259,648.777498 168.331024,649.497792 169.522906,649.497792 C170.597082,649.496911 171.663494,649.314108 172.676435,648.956955 L173.216435,648.768693 L173.216435,644.894253 L169.734671,645.221644 C169.028788,645.28522 168.519318,645.488804 168.206435,645.832924 C167.893376,646.176869 167.736494,646.678257 167.735259,647.336911 Z M181.867041,640.341664 C180.156512,640.341664 179.301688,640.93639 179.302924,642.125667 C179.302924,642.674076 179.498806,643.061344 179.890571,643.287999 C180.282335,643.514654 181.176512,643.749586 182.572924,643.992442 C183.9681,644.234419 184.956512,644.574313 185.537629,645.012301 C186.118924,645.450112 186.408688,646.272022 186.407453,647.477853 C186.407453,648.683508 186.019394,649.568289 185.242924,650.131844 C184.466276,650.695223 183.333512,650.975239 181.8441,650.971717 C180.871747,650.971717 177.626453,650.619495 177.626453,650.619495 L177.719982,649.094375 C179.585276,649.270486 180.933512,649.406267 181.8441,649.406267 C182.754688,649.406267 183.448218,649.26168 183.926453,648.973034 C184.404688,648.684036 184.642747,648.19797 184.642747,647.516421 C184.642747,646.834872 184.439982,646.375399 184.032335,646.13219 C183.624688,645.889157 182.729982,645.658451 181.349982,645.438313 C179.969982,645.218174 178.988806,644.895891 178.411747,644.473225 C177.834688,644.050735 177.539982,643.268627 177.539982,642.125667 C177.539982,640.982884 177.9441,640.137551 178.752335,639.58967 C179.560571,639.041966 180.566453,638.767409 181.7751,638.767409 C182.731747,638.767409 186.051159,639.010266 186.051159,639.010266 L186.051159,640.545953 C184.302335,640.466703 182.870982,640.341664 181.867041,640.341664 Z M194.917076,640.528447 L191.177665,640.528447 L191.177665,646.139164 C191.177665,647.48606 191.275253,648.370665 191.470606,648.793331 C191.666488,649.215997 192.133959,649.42733 192.869841,649.42733 L194.964724,649.286265 L195.082782,650.741117 C194.290429,650.887289 193.488194,650.973936 192.682959,651 C191.459312,651 190.612253,650.702373 190.141606,650.107118 C189.671135,649.511863 189.435724,648.377005 189.435724,646.702895 L189.435724,640.528447 L187.764724,640.528447 L187.764724,638.996282 L189.434135,638.996282 L189.434135,635.403444 L191.1759,635.403444 L191.1759,638.996282 L194.915135,638.996282 L194.917076,640.528447 Z M197.369912,650.887166 L197.369912,638.996159 L199.134618,638.996159 L199.134618,650.87836 L197.369912,650.887166 Z M197.369912,637.502739 L197.369912,635.459853 L199.134618,635.459853 L199.134618,637.502739 L197.369912,637.502739 Z M206.777647,638.767338 C207.661059,638.804498 208.541118,638.898717 209.412353,639.049116 L209.977059,639.11956 L209.906294,640.553103 C208.985294,640.436165 208.058824,640.365545 207.130588,640.341593 C205.796294,640.341593 204.890647,640.658769 204.412941,641.292768 C203.935412,641.926591 203.695765,643.100723 203.694529,644.814986 C203.694529,646.529073 203.918294,647.722577 204.365294,648.39532 C204.812294,649.068064 205.741765,649.404259 207.153529,649.404259 L209.929235,649.193102 L210,650.649539 C208.918412,650.830229 207.825882,650.937833 206.729824,650.971822 C204.894706,650.971822 203.628176,650.502135 202.930588,649.562935 C202.232824,648.623736 201.883588,647.038738 201.882353,644.807941 C201.882353,642.577145 202.258941,641.012048 203.011765,640.112825 C203.764765,639.213427 205.02,638.764873 206.777647,638.767338 Z M196.787594,612.692344 L188.823476,610.829091 L186.705829,606.796152 L197.117594,597.689458 C200.213771,598.859187 202.262594,601.817497 202.265241,605.121337 C202.243712,608.551625 200.044006,611.590594 196.787594,612.688822 L196.787594,612.692344 Z M190.801712,622.08962 C189.553182,622.086627 188.340476,621.67259 187.351712,620.911263 L188.925829,612.725805 L196.161124,614.414708 C197.243947,617.382177 195.711124,620.663827 192.737771,621.744443 C192.117124,621.970041 191.462065,622.086627 190.801712,622.08962 L190.801712,622.08962 Z M185.495241,620.907916 C181.788124,626.352737 174.359947,627.767435 168.904006,624.067698 C165.633653,621.850286 163.675006,618.161291 163.672888,614.215703 C163.672535,613.418625 163.750535,612.623485 163.905829,611.841728 L174.299947,602.467346 L184.905829,607.291023 L187.254653,611.769523 L185.495241,620.907916 Z M157.727594,602.875924 C157.7493,599.442818 159.9513,596.401559 163.210535,595.303156 L171.151712,597.176975 L173.015241,601.153559 L162.859359,610.311325 C159.7713,609.132086 157.730771,606.175713 157.727594,602.875924 L157.727594,602.875924 Z M169.198182,585.911163 C170.450947,585.911163 171.669124,586.321325 172.665829,587.078778 L171.077594,595.29435 L163.8423,593.587836 C162.759476,590.619311 164.293006,587.33678 167.267594,586.256164 C167.887712,586.030918 168.541888,585.914156 169.201712,585.911163 L169.198182,585.911163 Z M174.5523,587.094628 C178.271594,581.677985 185.686535,580.295867 191.114241,584.007404 C194.356359,586.224464 196.294006,589.894615 196.293476,593.81678 C196.294006,594.602234 196.215476,595.385752 196.058771,596.155532 L185.399947,605.47532 L174.836418,600.669254 L172.773476,596.266482 L174.5523,587.094628 Z M204.139359,605.144232 C204.147829,601.137885 201.632594,597.558256 197.855241,596.201321 C198.023065,595.348592 198.107418,594.481598 198.107594,593.612491 C198.110065,586.09696 192.007006,580.00229 184.476124,580.000001 C180.094006,579.998416 175.978359,582.09889 173.414065,585.645235 C170.261065,583.195357 165.715006,583.760144 163.260124,586.906717 C161.715124,588.887084 161.311359,591.526282 162.194065,593.876658 C158.407182,595.252436 155.879771,598.836468 155.860535,602.858312 C155.849065,606.880333 158.380006,610.472466 162.176418,611.822356 C160.740829,619.182206 165.555653,626.310118 172.930535,627.742604 C173.789241,627.909557 174.662241,627.993209 175.537006,627.992681 C179.920712,627.996732 184.0353,625.883929 186.580535,622.322087 C189.736006,624.768795 194.281535,624.199429 196.733065,621.05039 C198.266771,619.080766 198.673006,616.460765 197.807594,614.120603 C201.592535,612.745353 204.118712,609.163786 204.139359,605.144232 L204.139359,605.144232 Z" id="Combined-Shape"></path>
        </g>
    </g>
</svg>