<svg version="1.1" id="Layer_1" xmlns="http://www.w3.org/2000/svg" xmlns:xlink="http://www.w3.org/1999/xlink" x="0px" y="0px" width="70px" height="70px" viewBox="-1.171 64.985 70 70" enable-background="new -1.171 64.985 70 70" xml:space="preserve">
  <g>
    <path fill="#FFFFFF" d="M68.244,101.643c0-5.759-3.578-10.821-8.96-12.77c0.233-1.222,0.349-2.443,0.349-3.694
      c0-10.734-8.728-19.462-19.433-19.462c-6.284,0-12.102,2.997-15.768,8.058c-1.804-1.396-4.015-2.152-6.313-2.152
      c-5.702,0-10.327,4.625-10.327,10.327c0,1.251,0.232,2.473,0.64,3.607c-5.353,1.92-9.018,7.069-9.018,12.8
      c0,5.788,3.607,10.851,8.989,12.8c-0.233,1.193-0.349,2.443-0.349,3.695c0,10.705,8.698,19.402,19.403,19.402
      c6.284,0,12.102-3.025,15.738-8.086c1.804,1.424,4.015,2.209,6.313,2.209c5.702,0,10.327-4.625,10.327-10.326
      c0-1.252-0.233-2.473-0.64-3.607C64.549,112.523,68.244,107.375,68.244,101.643"/>
    <path fill="#FED10A" d="M26.469,95.244l15.069,6.866l15.186-13.324c0.233-1.105,0.32-2.182,0.32-3.346
      c0-9.367-7.622-16.989-16.989-16.989c-5.615,0-10.822,2.763-13.993,7.389l-2.531,13.12L26.469,95.244z"/>
    <path fill="#24BBB1" d="M10.876,111.186c-0.233,1.105-0.32,2.24-0.32,3.402c0,9.396,7.651,17.02,17.047,17.02
      c5.644,0,10.909-2.793,14.08-7.447l2.502-13.063l-3.346-6.4l-15.127-6.894L10.876,111.186z"/>
    <path fill="#EF5098" d="M10.789,85.12l10.327,2.443l2.269-11.724c-1.396-1.076-3.142-1.658-4.945-1.658
      c-4.48,0-8.146,3.637-8.146,8.146C10.294,83.287,10.469,84.247,10.789,85.12"/>
    <path fill="#17A8E0" d="M9.887,87.593c-4.596,1.513-7.825,5.935-7.825,10.792c0,4.742,2.938,8.96,7.331,10.648L23.88,95.942
      l-2.647-5.673L9.887,87.593z"/>
    <path fill="#93C83E" d="M44.302,124.16c1.425,1.076,3.142,1.688,4.917,1.688c4.48,0,8.146-3.637,8.146-8.146
      c0-0.988-0.175-1.949-0.495-2.822l-10.298-2.414L44.302,124.16z"/>
    <path fill="#0779A1" d="M46.396,109.76l11.345,2.646c4.625-1.512,7.826-5.934,7.826-10.82c0-4.713-2.938-8.96-7.331-10.619
      L43.4,103.971L46.396,109.76z"/>
  </g>
</svg>