<?xml version="1.0" encoding="utf-8"?>
<!-- Generator: Adobe Illustrator 21.1.0, SVG Export Plug-In . SVG Version: 6.00 Build 0)  -->
<svg version="1.1" id="Layer_1" xmlns="http://www.w3.org/2000/svg" xmlns:xlink="http://www.w3.org/1999/xlink" x="0px" y="0px"
	 viewBox="0 0 112 112" style="enable-background:new 0 0 112 112;" xml:space="preserve">
<style type="text/css">
	.st0{fill:#FFFFFF;}
	.st1{fill:#93C90E;}
	.st2{fill:#74A300;}
	.st3{fill:#00A9E5;}
	.st4{fill:#0078A0;}
	.st5{fill:#353535;}
</style>
<path id="Cloud_2_" class="st0" d="M91.6,81C84.3,90.1,73,96,60.4,96c-12.6,0-23.9-5.9-31.2-15c7.3-9.1,18.6-15,31.2-15
	S84.3,71.9,91.6,81z M50.4,56c0-5.1,4.2-10,8.8-10c0,0,1.3,0,1.4,0c13.1,0,23.8-5.9,31.1-15C84.3,21.9,73,16,60.4,16
	c-12.6,0-23.9,5.9-31.2,15c0,0,0,0,0,0c-5.5,6.8-8.8,15.5-8.8,25c0,6.5,1.5,12.6,4.3,18c7-7.8,16.3-12.9,26.3-14.9
	C50.7,58.1,50.4,57,50.4,56z"/>
</svg>
