<?xml version="1.0" encoding="utf-8"?>
<!-- Generator: Adobe Illustrator 21.1.0, SVG Export Plug-In . SVG Version: 6.00 Build 0)  -->
<svg version="1.1" id="Layer_1" xmlns="http://www.w3.org/2000/svg" xmlns:xlink="http://www.w3.org/1999/xlink" x="0px" y="0px"
	 viewBox="0 0 112 112" style="enable-background:new 0 0 112 112;" xml:space="preserve">
<style type="text/css">
	.st0{fill:#FFFFFF;}
	.st1{fill:#00A9E5;}
	.st2{fill:#353535;}
	.st3{fill:#00BFB3;}
	.st4{fill:#019B8F;}
	.st5{fill:#F9B110;}
	.st6{fill:#FED10A;}
</style>
<path id="Elasticsearch_4_" class="st0" d="M53.5,68H21.2c-1.2-3.8-1.8-7.8-1.8-12s0.6-8.2,1.8-12h32.3h20.9c6.6,0,11.9,5.4,11.9,12
	c0,6.6-5.3,12-11.9,12H53.5z M52,72H22.7c3.1,7.1,8.2,13.2,14.7,17.4l0,0c6.3,4.2,13.9,6.6,22,6.6c13.9,0,26.1-7.1,33.3-17.8
	c-3.7-3.8-8.9-6.2-14.6-6.2H52z M78.1,40c5.7,0,10.9-2.4,14.6-6.2C85.5,23.1,73.2,16,59.4,16c-8.1,0-15.7,2.4-22,6.6l0,0
	C30.9,26.8,25.8,32.9,22.7,40H52H78.1z"/>
</svg>
