<?xml version="1.0" encoding="UTF-8"?>
<svg width="32px" height="32px" viewBox="0 0 32 32" version="1.1" xmlns="http://www.w3.org/2000/svg" xmlns:xlink="http://www.w3.org/1999/xlink">
    <!-- Generator: Sketch 55.1 (78136) - https://sketchapp.com -->
    <title>icon / product-logo / 32x32px / ece / white</title>
    <desc>Created with Sketch.</desc>
    <g id="icon-/-product-logo-/-32x32px-/-ece-/-white" stroke="none" stroke-width="1" fill="none" fill-rule="evenodd">
        <path d="M21.7422,21.2177 C21.0322,20.9977 20.2642,21.0827 19.5962,21.4057 C18.8102,21.7857 17.9302,21.9997 17.0002,21.9997 C16.0692,21.9997 15.1892,21.7857 14.4042,21.4057 C13.7352,21.0827 12.9682,20.9977 12.2582,21.2177 C9.2772,22.1417 6.6692,23.9117 4.7172,26.2497 C7.6512,29.7637 12.0632,31.9997 17.0002,31.9997 C21.9362,31.9997 26.3482,29.7637 29.2832,26.2497 C27.3302,23.9117 24.7222,22.1417 21.7422,21.2177" id="Fill-1" fill="#FFFFFF"></path>
        <path d="M17,-0.0001 C8.164,-0.0001 1,7.1639 1,15.9999 C1,18.7919 1.719,21.4159 2.977,23.7009 C5.257,21.2009 8.138,19.3539 11.37,18.3519 C11.402,18.3419 11.437,18.3389 11.469,18.3299 C11.167,17.6129 11,16.8259 11,15.9999 C11,12.6869 13.687,9.9999 17,9.9999 C17.931,9.9999 18.811,10.2139 19.596,10.5939 C20.266,10.9169 21.032,11.0019 21.742,10.7819 C24.723,9.8579 27.33,8.0879 29.283,5.7499 C26.349,2.2369 21.936,-0.0001 17,-0.0001" id="Fill-3" fill="#FFFFFF"></path>
        <path d="M20,15.9999 C20,17.6569 18.657,18.9999 17,18.9999 C15.343,18.9999 14,17.6569 14,15.9999 C14,14.3429 15.343,12.9999 17,12.9999 C18.657,12.9999 20,14.3429 20,15.9999" id="Fill-6" fill="#FFFFFF"></path>
    </g>
</svg>