<?xml version="1.0" encoding="UTF-8"?>
<svg width="32px" height="32px" viewBox="0 0 32 32" version="1.1" xmlns="http://www.w3.org/2000/svg" xmlns:xlink="http://www.w3.org/1999/xlink">
    <!-- Generator: Sketch 55.1 (78136) - https://sketchapp.com -->
    <title>icon / product-logo / 32x32px / elasticsearch / white</title>
    <desc>Created with Sketch.</desc>
    <defs>
        <polygon id="path-1" points="0.6438 0 27.479 0 27.479 8.9995 0.6438 8.9995"></polygon>
        <polygon id="path-3" points="0.6437 -0.0001 27.479 -0.0001 27.479 8.9999 0.6437 8.9999"></polygon>
    </defs>
    <g id="icon-/-product-logo-/-32x32px-/-elasticsearch-/-white" stroke="none" stroke-width="1" fill="none" fill-rule="evenodd">
        <g id="Group-9" transform="translate(1.000000, 0.000000)">
            <path d="M0,15.9999 C0,17.3839 0.194,18.7189 0.524,19.9999 L20,19.9999 C22.209,19.9999 24,18.2089 24,15.9999 C24,13.7909 22.209,11.9999 20,11.9999 L0.524,11.9999 C0.194,13.2809 0,14.6159 0,15.9999" id="Fill-1" fill="#FFFFFF"></path>
            <g id="Group-5" transform="translate(1.000000, 0.000000)">
                <mask id="mask-2" fill="white">
                    <use xlink:href="#path-1"></use>
                </mask>
                <g id="Clip-4"></g>
                <path d="M25.9238,7.6615 C26.4828,7.1465 27.0028,6.5935 27.4798,5.9995 C24.5468,2.3455 20.0498,-0.0005 14.9998,-0.0005 C8.6788,-0.0005 3.2388,3.6775 0.6438,8.9995 L22.5108,8.9995 C23.7768,8.9995 24.9938,8.5195 25.9238,7.6615" id="Fill-3" fill="#FFFFFF" mask="url(#mask-2)"></path>
            </g>
            <g id="Group-8" transform="translate(1.000000, 23.000000)">
                <mask id="mask-4" fill="white">
                    <use xlink:href="#path-3"></use>
                </mask>
                <g id="Clip-7"></g>
                <path d="M22.5107,-0.0001 L0.6437,-0.0001 C3.2397,5.3229 8.6787,8.9999 14.9997,8.9999 C20.0497,8.9999 24.5467,6.6549 27.4797,2.9999 C27.0027,2.4069 26.4827,1.8529 25.9237,1.3379 C24.9937,0.4799 23.7767,-0.0001 22.5107,-0.0001" id="Fill-6" fill="#FFFFFF" mask="url(#mask-4)"></path>
            </g>
        </g>
    </g>
</svg>