<?xml version="1.0" encoding="UTF-8"?>
<svg width="32px" height="32px" viewBox="0 0 32 32" version="1.1" xmlns="http://www.w3.org/2000/svg" xmlns:xlink="http://www.w3.org/1999/xlink">
    <!-- Generator: Sketch 55.2 (78181) - https://sketchapp.com -->
    <title>logo-hadoop-white-32</title>
    <desc>Created with Sketch.</desc>
    <g id="logo-hadoop-white-32" stroke="none" stroke-width="1" fill="none" fill-rule="evenodd">
        <path d="M23,28 L4,28 C4,20.7843244 4,16.2745205 4,14.4705882 C4,9.24012678 8.25329488,5 13.5,5 C18.7467051,5 23,9.24012678 23,14.4705882 C23,17.9575625 23,22.4673665 23,28 Z M18.8695652,14.4347826 C19.613949,14.4347826 20.2173913,13.8313403 20.2173913,13.0869565 C20.2173913,12.3425727 19.613949,11.7391304 18.8695652,11.7391304 C18.1251814,11.7391304 17.5217391,12.3425727 17.5217391,13.0869565 C17.5217391,13.8313403 18.1251814,14.4347826 18.8695652,14.4347826 Z M16,20 L16,6 C12.1340068,6 9,9.13400675 9,13 C9,16.8659932 12.1340068,20 16,20 Z M6,23 L6,25 L21,25 L21,23 L6,23 Z" id="Combined-Shape" fill="#FFFFFF" fill-rule="nonzero"></path>
        <path d="M4.03959219,19.826087 C3.94613464,21.8796284 2.25430354,23.5158642 0.18039034,23.5158642 C0.119876418,23.5158642 0.0598102724,23.5140707 -4.08562073e-14,23.5113164 C0.487821537,23.7407545 1.032127,23.8695652 1.60675339,23.8695652 C3.69691451,23.8695652 5.39130435,22.1729915 5.39130435,20.0800574 C5.39130435,19.9946106 5.38746626,19.9101246 5.38190102,19.826087 L4.03959219,19.826087 Z" id="Fill-8" fill="#FFFFFF" fill-rule="nonzero"></path>
        <path d="M19.9,15.1086957 C19.9,18.5357258 22.6342772,21.326087 26.0225756,21.326087 C27.8944076,21.326087 29.6281578,20.4662208 30.7814547,19.0208193 C31.2370502,18.4498316 31.590395,17.8008714 31.8230465,17.1028109 L28.9769535,16.1542571 C28.8561362,16.5167638 28.6727298,16.8536117 28.4364568,17.1497275 C27.8445229,17.8915851 26.9684357,18.326087 26.0225756,18.326087 C24.304918,18.326087 22.9,16.892352 22.9,15.1086957 L19.9,15.1086957 Z" id="Path" fill="#FFFFFF" fill-rule="nonzero"></path>
    </g>
</svg>