<?xml version="1.0" encoding="UTF-8"?>
<svg width="32px" height="32px" viewBox="0 0 32 32" version="1.1" xmlns="http://www.w3.org/2000/svg" xmlns:xlink="http://www.w3.org/1999/xlink">
    <!-- Generator: Sketch 55.2 (78181) - https://sketchapp.com -->
    <title>logo-elasticon-32-white</title>
    <desc>Created with Sketch.</desc>
    <g id="logo-elasticon-32-white" stroke="none" stroke-width="1" fill="none" fill-rule="evenodd">
        <path d="M26.5677966,2.04830508 C27.4855932,2.04830508 28.2101695,2.33813559 28.6932203,2.86949153 C29.1762712,3.40084746 29.4661017,4.2220339 29.4661017,5.28474576 L29.4661017,12.5305085 C29.4661017,13.5449153 29.659322,14.2694915 30.0940678,14.6559322 C30.5288136,14.9940678 31.1084746,15.2355932 31.8813559,15.2355932 L31.8813559,17.3610169 C31.1084746,17.3610169 30.5288136,17.5542373 30.0940678,17.9889831 C29.659322,18.3754237 29.4661017,19.0516949 29.4661017,19.9211864 L29.4661017,27.3118644 C29.4661017,28.2779661 29.2245763,29.0025424 28.7415254,29.6305085 C28.2584746,30.1618644 27.5338983,30.4516949 26.5677966,30.4516949 L5.31355932,30.4516949 C4.39576271,30.4516949 3.67118644,30.1618644 3.18813559,29.6305085 C2.70508475,29.0991525 2.41525424,28.2779661 2.41525424,27.2152542 L2.41525424,19.9694915 C2.41525424,18.9550847 2.2220339,18.2305085 1.78728814,17.8440678 C1.35254237,17.5059322 0.772881356,17.2644068 8.8817842e-15,17.2644068 L8.8817842e-15,15.1389831 C0.772881356,15.1389831 1.35254237,14.9457627 1.78728814,14.5110169 C2.2220339,14.1245763 2.41525424,13.4483051 2.41525424,12.5788136 L2.41525424,5.18813559 C2.41525424,4.2220339 2.65677966,3.49745763 3.13983051,2.86949153 C3.4779661,2.48305085 3.96101695,2.24152542 4.58898305,2.09661017 C4.83050847,2.04830508 5.0720339,2.04830508 5.31355932,2.04830508 L26.5677966,2.04830508 Z M25.8432203,16.6847458 L25.8432203,16.6364407 L25.8432203,11.129661 C25.8432203,8.61779661 23.8144068,6.58898305 21.3508475,6.58898305 C18.8872881,6.58898305 16.8584746,8.61779661 16.8584746,11.129661 L16.8584746,16.5398305 C16.8584746,17.1194915 17.3415254,17.5542373 17.8728814,17.5542373 C18.4525424,17.5542373 18.8872881,17.0711864 18.8872881,16.5398305 L18.8872881,11.129661 C18.8872881,9.72881356 19.9983051,8.61779661 21.3991525,8.61779661 C22.8,8.61779661 23.9110169,9.72881356 23.9110169,11.129661 L23.9110169,16.6364407 C23.9110169,17.2161017 24.3940678,17.6508475 24.9254237,17.6508475 C25.5050847,17.6508475 25.8432203,17.2161017 25.8432203,16.6847458 Z M10.6271186,6.73389831 C8.06694915,6.73389831 5.98983051,9.14915254 5.98983051,12.1923729 C5.98983051,15.1872881 8.06694915,17.6508475 10.6271186,17.6508475 C13.1872881,17.6508475 15.2644068,15.2355932 15.2644068,12.1923729 C15.2644068,9.19745763 13.1872881,6.73389831 10.6271186,6.73389831 Z M10.5788136,15.8152542 C8.98474576,15.8152542 7.68050847,14.1728814 7.68050847,12.1440678 C7.68050847,10.1152542 8.98474576,8.47288136 10.5788136,8.47288136 C12.1728814,8.47288136 13.4771186,10.1152542 13.4771186,12.1440678 C13.4771186,14.1728814 12.1728814,15.8152542 10.5788136,15.8152542 Z M8.59830508,25.5728814 L8.64661017,25.5728814 L8.64661017,21.4186441 L10.0474576,21.4186441 L10.0474576,20.7423729 L6.42457627,20.7423729 L6.42457627,21.4186441 L7.82542373,21.4186441 L7.82542373,25.5728814 L8.59830508,25.5728814 Z M15.409322,23.1576271 C15.409322,22.3847458 15.2161017,21.7567797 14.7813559,21.370339 C14.3949153,20.9355932 13.8635593,20.7423729 13.1389831,20.7423729 C12.4144068,20.7423729 11.8347458,20.9355932 11.4483051,21.370339 C11.0618644,21.8050847 10.8686441,22.4330508 10.8686441,23.2059322 C10.8686441,23.9788136 11.0618644,24.6067797 11.4483051,25.0415254 C11.8347458,25.4762712 12.4144068,25.6694915 13.1389831,25.6694915 C13.8635593,25.6694915 14.4432203,25.4279661 14.829661,24.9932203 C15.2161017,24.5584746 15.409322,23.9305085 15.409322,23.1576271 Z M11.6898305,23.1576271 C11.6898305,22.5779661 11.8347458,22.1432203 12.0279661,21.8533898 C12.2694915,21.5152542 12.6076271,21.370339 13.090678,21.370339 C13.5737288,21.370339 13.9118644,21.5635593 14.1533898,21.8533898 C14.3949153,22.1432203 14.4915254,22.6262712 14.4915254,23.2059322 C14.4915254,23.7855932 14.3949153,24.2686441 14.1533898,24.5584746 C13.9118644,24.8483051 13.5737288,24.9932203 13.090678,24.9932203 C12.6076271,24.9932203 12.2694915,24.8 12.0279661,24.5101695 C11.7864407,24.220339 11.6898305,23.7372881 11.6898305,23.1576271 Z M20.5779661,20.7423729 C20.5779661,20.7423729 19.8050847,20.7423729 19.8050847,20.7423729 L19.8050847,23.7855932 C19.8050847,24.5584746 19.4186441,24.9449153 18.6940678,24.9449153 C18.3076271,24.9449153 18.0177966,24.8483051 17.8245763,24.6550847 C17.6313559,24.4618644 17.5347458,24.1720339 17.5347458,23.7855932 L17.5347458,20.7423729 L16.7618644,20.7423729 L16.7618644,23.8338983 C16.7618644,24.3652542 16.9067797,24.8 17.2449153,25.1381356 C17.5830508,25.4762712 18.0661017,25.6211864 18.6457627,25.6211864 C19.0322034,25.6211864 19.370339,25.5728814 19.6601695,25.4279661 C19.95,25.2830508 20.1915254,25.0415254 20.3364407,24.8 C20.4813559,24.5584746 20.5779661,24.220339 20.5779661,23.8822034 L20.5779661,20.7423729 Z M22.8966102,23.640678 C22.8966102,23.640678 23.6694915,23.640678 23.6694915,23.640678 L24.8288136,25.5728814 L25.7466102,25.5728814 L24.3940678,23.4474576 C25.0220339,23.1576271 25.3118644,22.7228814 25.3118644,22.1432203 C25.3118644,21.6601695 25.1669492,21.3220339 24.8771186,21.0805085 C24.5389831,20.8389831 24.1042373,20.7423729 23.4762712,20.7423729 L22.1237288,20.7423729 L22.1237288,25.5728814 L22.8966102,25.5728814 L22.8966102,23.640678 Z M22.8966102,23.0127119 L22.8483051,21.4186441 L23.379661,21.4186441 C23.7661017,21.4186441 24.0076271,21.5152542 24.2008475,21.6118644 C24.3940678,21.7084746 24.490678,21.9016949 24.490678,22.1915254 C24.490678,22.4813559 24.3940678,22.6745763 24.2491525,22.8194915 C24.0559322,22.9644068 23.8144068,23.0127119 23.4279661,23.0127119 L22.8966102,23.0127119 Z" id="Combined-Shape" fill="#FFFFFF" fill-rule="nonzero"></path>
    </g>
</svg>