<?xml version="1.0" encoding="UTF-8"?>
<svg width="32px" height="32px" viewBox="0 0 32 32" version="1.1" xmlns="http://www.w3.org/2000/svg" xmlns:xlink="http://www.w3.org/1999/xlink">
    <!-- Generator: Sketch 55.1 (78136) - https://sketchapp.com -->
    <title>icon / product-logo / 32x32px / maps / white</title>
    <desc>Created with Sketch.</desc>
    <g id="icon-/-product-logo-/-32x32px-/-maps-/-white" stroke="none" stroke-width="1" fill="none" fill-rule="evenodd">
        <g id="Group-7" fill="#FFFFFF">
            <path d="M25.5,9.5001 C25.5,16.1501 16,20.9251 16,20.9251 C16,20.9251 6.5,16.1501 6.5,9.5001 C6.5,4.2531 10.753,0.0001 16,0.0001 C21.247,0.0001 25.5,4.2531 25.5,9.5001" id="Fill-1"></path>
            <path d="M25.5303,17.0729 C24.7343,18.0709 23.8013,19.0479 22.6963,19.9889 C20.0763,22.2229 17.4573,23.5499 17.3473,23.6059 L16.0003,24.2829 L14.6523,23.6059 C14.5433,23.5499 11.9243,22.2229 9.3033,19.9889 C8.1993,19.0479 7.2653,18.0709 6.4693,17.0729 L0.0003,21.9249 L11.3643,30.4479 C14.1113,32.5089 17.8883,32.5089 20.6353,30.4479 L32.0003,21.9249 L25.5303,17.0729 Z" id="Fill-4"></path>
        </g>
    </g>
</svg>