<?xml version="1.0" encoding="UTF-8"?>
<svg width="32px" height="32px" viewBox="0 0 32 32" version="1.1" xmlns="http://www.w3.org/2000/svg" xmlns:xlink="http://www.w3.org/1999/xlink">
    <!-- Generator: Sketch 55.1 (78136) - https://sketchapp.com -->
    <title>icon / product-logo / 32x32px / metrics / white</title>
    <desc>Created with Sketch.</desc>
    <defs>
        <polygon id="path-1" points="-0.0002 0 19.9998 0 19.9998 14.6205 -0.0002 14.6205"></polygon>
    </defs>
    <g id="icon-/-product-logo-/-32x32px-/-metrics-/-white" stroke="none" stroke-width="1" fill="none" fill-rule="evenodd">
        <g id="Group-6" transform="translate(2.000000, 0.000000)">
            <path d="M0,31.9999 L28,31.9999 L28,19.9999 L21.535,13.5359 C19.583,11.5829 16.417,11.5829 14.465,13.5359 L0,27.9999 L0,31.9999 Z" id="Fill-1" fill="#FFFFFF"></path>
            <g id="Group-5" transform="translate(8.000000, 0.000000)">
                <mask id="mask-2" fill="white">
                    <use xlink:href="#path-1"></use>
                </mask>
                <g id="Clip-4"></g>
                <path d="M4.3428,11.4145 C5.8538,9.9035 7.8638,9.0715 9.9998,9.0715 C12.1368,9.0715 14.1468,9.9035 15.6568,11.4145 L18.8638,14.6205 C19.5858,13.2375 19.9998,11.6685 19.9998,9.9995 C19.9998,4.4775 15.5238,-0.0005 9.9998,-0.0005 C4.4768,-0.0005 -0.0002,4.4775 -0.0002,9.9995 C-0.0002,11.6685 0.4138,13.2375 1.1368,14.6205 L4.3428,11.4145 Z" id="Fill-3" fill="#FFFFFF" mask="url(#mask-2)"></path>
            </g>
        </g>
    </g>
</svg>