<?xml version="1.0" encoding="UTF-8"?>
<svg width="32px" height="32px" viewBox="0 0 32 32" version="1.1" xmlns="http://www.w3.org/2000/svg" xmlns:xlink="http://www.w3.org/1999/xlink">
    <!-- Generator: Sketch 55.1 (78136) - https://sketchapp.com -->
    <title>icon / product-logo / 32x32px / enterprise-search / white</title>
    <desc>Created with Sketch.</desc>
    <defs>
        <polygon id="path-1" points="0 0 24 0 24 31.9999 0 31.9999"></polygon>
    </defs>
    <g id="icon-/-product-logo-/-32x32px-/-enterprise-search-/-white" stroke="none" stroke-width="1" fill="none" fill-rule="evenodd">
        <g id="Group-6">
            <g id="Group-3" transform="translate(8.000000, 0.000000)">
                <mask id="mask-2" fill="white">
                    <use xlink:href="#path-1"></use>
                </mask>
                <g id="Clip-2"></g>
                <path d="M8,-0.0001 C5.082,-0.0001 2.355,0.7929 0,2.1579 C4.777,4.9259 8,10.0819 8,15.9999 C8,21.9189 4.777,27.0739 0,29.8419 C2.355,31.2069 5.082,31.9999 8,31.9999 C16.837,31.9999 24,24.8359 24,15.9999 C24,7.1639 16.837,-0.0001 8,-0.0001" id="Fill-1" fill="#FFFFFF" mask="url(#mask-2)"></path>
            </g>
            <path d="M8,23.9999 L10.221,23.9999 C11.988,21.7439 13,18.9349 13,15.9999 C13,13.0649 11.988,10.2559 10.221,7.9999 L8,7.9999 C3.582,7.9999 0,11.5819 0,15.9999 C0,20.4179 3.582,23.9999 8,23.9999" id="Fill-4" fill="#FFFFFF"></path>
        </g>
    </g>
</svg>