<?xml version="1.0" encoding="UTF-8"?>
<svg width="32px" height="32px" viewBox="0 0 32 32" version="1.1" xmlns="http://www.w3.org/2000/svg" xmlns:xlink="http://www.w3.org/1999/xlink">
    <!-- Generator: Sketch 55.1 (78136) - https://sketchapp.com -->
    <title>icon / product-logo / 32x32px / apm / white</title>
    <desc>Created with Sketch.</desc>
    <g id="icon-/-product-logo-/-32x32px-/-apm-/-white" stroke="none" stroke-width="1" fill="none" fill-rule="evenodd">
        <g id="Group-7" transform="translate(1.000000, 0.000000)" fill="#FFFFFF">
            <path d="M18.5,0.938 C16.334,-0.312 13.666,-0.312 11.5,0.938 L3.5,5.557 C1.334,6.807 0,9.118 0,11.619 L0,20.856 C0,23.357 1.334,25.668 3.5,26.918 L11,31.249 L11,17.978 C11,15.477 12.334,13.166 14.5,11.916 L26,5.276 L18.5,0.938 Z" id="Fill-1"></path>
            <path d="M27.5,7.8741 L17.495,13.6501 C18.452,14.8661 19,16.3811 19,17.9781 L19,31.2491 L26.5,26.9181 C28.666,25.6681 30,23.3571 30,20.8561 L30,11.6191 C30,10.0251 29.453,8.5111 28.5,7.2971 L27.5,7.8741 Z" id="Fill-4"></path>
        </g>
    </g>
</svg>