<?xml version="1.0" encoding="UTF-8"?>
<svg width="32px" height="32px" viewBox="0 0 32 32" version="1.1" xmlns="http://www.w3.org/2000/svg" xmlns:xlink="http://www.w3.org/1999/xlink">
    <!-- Generator: Sketch 55.1 (78136) - https://sketchapp.com -->
    <title>icon / product-logo / 32x32px / uptime / white</title>
    <desc>Created with Sketch.</desc>
    <g id="icon-/-product-logo-/-32x32px-/-uptime-/-white" stroke="none" stroke-width="1" fill="none" fill-rule="evenodd">
        <g id="Group-8" fill="#FFFFFF">
            <path d="M19.0002,14.9995 C19.0002,22.0615 14.1122,27.9685 7.5392,29.5625 C9.9962,31.0975 12.8902,31.9995 16.0002,31.9995 C24.8362,31.9995 32.0002,24.8355 32.0002,15.9995 L32.0002,12.9995 L25.5002,6.9995 L19.0002,12.9995 L19.0002,14.9995 Z" id="Fill-1"></path>
            <path d="M6.8333,26.6465 C10.9393,25.6505 14.0983,22.6385 15.3773,18.8125 C13.8883,16.7545 13.0003,14.2335 13.0003,11.4995 L13.0003,0.2905 C5.5993,1.6955 0.0003,8.1895 0.0003,15.9995 C0.0003,20.3595 1.7483,24.3075 4.5763,27.1925 L6.8333,26.6465 Z" id="Fill-4"></path>
        </g>
    </g>
</svg>