<?xml version="1.0" encoding="UTF-8"?>
<svg width="32px" height="32px" viewBox="0 0 32 32" version="1.1" xmlns="http://www.w3.org/2000/svg" xmlns:xlink="http://www.w3.org/1999/xlink">
    <!-- Generator: Sketch 55.1 (78136) - https://sketchapp.com -->
    <title>icon / product-logo / 32x32px / stack / white</title>
    <desc>Created with Sketch.</desc>
    <g id="icon-/-product-logo-/-32x32px-/-stack-/-white" stroke="none" stroke-width="1" fill="none" fill-rule="evenodd">
        <path d="M32,9 L32,2.5 C32,1.119 30.881,0 29.5,0 L2.5,0 C1.119,0 0,1.119 0,2.5 L0,9 L32,9 Z" id="Fill-1" fill="#FFFFFF"></path>
        <polygon id="Fill-3" fill="#FFFFFF" points="0 20 32 20 32 12 0 12"></polygon>
        <path d="M14.5,23 L0,23 L0,29.5 C0,30.881 1.119,32 2.5,32 L14.5,32 L14.5,23 Z" id="Fill-5" fill="#FFFFFF"></path>
        <path d="M17.5,23 L17.5,32 L29.5,32 C30.881,32 32,30.881 32,29.5 L32,23 L17.5,23 Z" id="Fill-6" fill="#FFFFFF"></path>
    </g>
</svg>