<svg xmlns="http://www.w3.org/2000/svg" width="10" height="10" viewBox="0 0 10 10">
  <g fill="#00A9E5" fill-rule="evenodd">
    <path d="M4,0 L2,0 C0.896,0 0,0.896 0,2 L0,8 C0,9.104 0.896,10 2,10 L8,10 C9.104,10 10,9.104 10,8 L10,6 L9,6 L9,8 C9,8.551 8.551,9 8,9 L2,9 C1.449,9 1,8.551 1,8 L1,2 C1,1.449 1.449,1 2,1 L4,1 L4,0 Z"/>
    <polygon points="6 1 9.293 1 9.293 0 6 0"/>
    <polygon points="9 4 10 4 10 .707 9 .707"/>
    <polyline points="2.896 7.811 10 .707 9.293 0 2.189 7.104"/>
  </g>
</svg>
