<?xml version="1.0" encoding="utf-8"?>
<!-- Generator: Adobe Illustrator 19.2.1, SVG Export Plug-In . SVG Version: 6.00 Build 0)  -->
<svg version="1.1" id="Layer_1" xmlns="http://www.w3.org/2000/svg" xmlns:xlink="http://www.w3.org/1999/xlink" x="0px" y="0px"
	 viewBox="0 0 15 15" style="enable-background:new 0 0 15 15;" xml:space="preserve">
<style type="text/css">
	.st0{fill:#A1DCF3;}
	.st0:hover{fill:#00A9E5;}
</style>
<title>Group 7 Copy 3</title>
<desc>Created with Sketch.</desc>
<g id="Page-2">
	<g id="Blog-overview---option-3" transform="translate(-1205.000000, -124.000000)">
		<g id="Group-7-Copy-3" transform="translate(1205.000000, 124.000000)">
			<path id="Fill-4" class="st0" d="M10.2,4.8C8.9,3.4,7.4,2.4,5.7,1.7C3.9,1,2.1,0.6,0.2,0.6v2.7c1.5,0,3,0.3,4.5,0.9
				C6,4.8,7.2,5.6,8.3,6.7c1.1,1.1,1.9,2.3,2.5,3.7c0.6,1.4,0.9,2.9,0.9,4.5h2.7c0-1.9-0.4-3.8-1.1-5.5C12.5,7.6,11.5,6.1,10.2,4.8"
				/>
			<path id="Fill-6" class="st0" d="M6.8,8.1C6,7.3,5,6.6,3.8,6.1C2.7,5.6,1.4,5.4,0.2,5.4v2.7c1.8,0,3.5,0.7,4.8,2
				c1.3,1.3,2,3,2,4.8h2.7c0-1.3-0.3-2.5-0.7-3.7C8.4,10,7.7,9,6.8,8.1"/>
			<path id="Fill-8" class="st0" d="M3.9,12.9c0-1-0.8-1.9-1.9-1.9c-1,0-1.9,0.8-1.9,1.9S1,14.8,2,14.8C3.1,14.8,3.9,14,3.9,12.9"/>
		</g>
	</g>
</g>
</svg>
