<?xml version="1.0" encoding="utf-8"?>
<!-- Generator: Adobe Illustrator 19.2.1, SVG Export Plug-In . SVG Version: 6.00 Build 0)  -->
<svg version="1.1" id="Layer_1" xmlns="http://www.w3.org/2000/svg" xmlns:xlink="http://www.w3.org/1999/xlink" x="0px" y="0px"
	 viewBox="0 0 30 30" style="enable-background:new 0 0 30 30;" xml:space="preserve">
<style type="text/css">
	.st0{fill:none;}
</style>
<title>Mobile icons</title>
<g>
	<path d="M24,25H6c-1.7,0-3-1.3-3-3v-8c0-0.6,0.4-1,1-1s1,0.4,1,1v8c0,0.6,0.4,1,1,1h18c0.6,0,1-0.4,1-1v-8c0-0.6,0.4-1,1-1
		s1,0.4,1,1v8C27,23.7,25.7,25,24,25z"/>
</g>
<g>
	<path d="M15,16c-0.4,0-0.8-0.1-1.1-0.3l-10-6.5C3.3,8.8,3,8.2,3,7.5V7c0-1.7,1.3-3,3-3h18c1.7,0,3,1.3,3,3v0.5
		c0,0.7-0.3,1.3-0.9,1.7c-6.9,4.5-8.6,5.6-9.7,6.3l-0.3,0.2C15.8,15.9,15.4,16,15,16z M6,6C5.4,6,5,6.4,5,7v0.5L15,14l0.3-0.2
		c1-0.6,2.7-1.7,9.6-6.3L25,7c0-0.6-0.4-1-1-1H6z"/>
</g>
<path class="st0" d="M0,0h30v30H0V0z"/>
</svg>
