<?xml version="1.0" encoding="utf-8"?>
<!-- Generator: Adobe Illustrator 19.2.1, SVG Export Plug-In . SVG Version: 6.00 Build 0)  -->
<svg version="1.1" id="Layer_1" xmlns="http://www.w3.org/2000/svg" xmlns:xlink="http://www.w3.org/1999/xlink" x="0px" y="0px"
	 viewBox="0 0 30 30" style="enable-background:new 0 0 30 30;" xml:space="preserve">
<style type="text/css">
	.st0{fill:none;}
</style>
<title>Mobile icons</title>
<g>
	<path d="M26,15c-0.6,0-1,0.4-1,1v6c0,0.6-0.4,1-1,1H6c-0.6,0-1-0.4-1-1v-6c0-0.6-0.4-1-1-1s-1,0.4-1,1v6c0,1.7,1.3,3,3,3h18
		c1.7,0,3-1.3,3-3v-6C27,15.4,26.6,15,26,15z"/>
	<path d="M14.4,15.8c0,0,0.1,0,0.1,0.1h0.1c0.1,0,0.2,0.1,0.3,0.1s0.2,0,0.3-0.1h0.1c0,0,0.1,0,0.1-0.1l6-4c0.5-0.3,0.6-0.9,0.3-1.4
		c-0.3-0.5-0.9-0.6-1.4-0.3l-4.4,3V5c0-0.6-0.4-1-1-1s-1,0.4-1,1v8.1l-4.4-3c-0.4-0.2-1-0.1-1.3,0.3S8,11.5,8.4,11.8L14.4,15.8z"/>
</g>
<path class="st0" d="M0,0h30v30H0V0z"/>
</svg>
