<?xml version="1.0" encoding="utf-8"?>
<!-- Generator: Adobe Illustrator 19.2.1, SVG Export Plug-In . SVG Version: 6.00 Build 0)  -->
<svg version="1.1" id="Layer_1" xmlns="http://www.w3.org/2000/svg" xmlns:xlink="http://www.w3.org/1999/xlink" x="0px" y="0px"
	 viewBox="0 0 30 30" style="enable-background:new 0 0 30 30;" xml:space="preserve">
<style type="text/css">
	.st0{fill:#FFFFFF;}
	.st1{fill:none;}
</style>
<title>Mobile icons</title>
<path class="st0" d="M26.7,25.3l-6-6c3.2-3.9,3-9.7-0.7-13.4C16.2,2,9.8,2,5.9,5.9S2,16.2,5.9,20.1C7.8,22,10.3,23,13,23l0,0
	c0.6,0,1-0.4,1-1s-0.4-1-1-1l0,0c-2.1,0-4.1-0.8-5.7-2.3c-3.1-3.1-3.1-8.2,0-11.3s8.2-3.1,11.3,0s3.1,8.2,0,11.3
	c-0.2,0.2-0.3,0.4-0.3,0.7l0,0c0,0.3,0.1,0.5,0.3,0.7l0,0l6.6,6.6c0.2,0.2,0.5,0.3,0.7,0.3s0.5-0.1,0.7-0.3
	C27.1,26.3,27.1,25.7,26.7,25.3z"/>
<path class="st1" d="M0,0h30v30H0V0z"/>
</svg>
