<?xml version="1.0" encoding="utf-8"?>
<!-- Generator: Adobe Illustrator 19.2.1, SVG Export Plug-In . SVG Version: 6.00 Build 0)  -->
<svg version="1.1" id="Layer_1" xmlns="http://www.w3.org/2000/svg" xmlns:xlink="http://www.w3.org/1999/xlink" x="0px" y="0px"
	 viewBox="0 0 686.2 235.7" style="enable-background:new 0 0 686.2 235.7;" xml:space="preserve">
<style type="text/css">
	.st0{fill:#999999;}
</style>
<g>
	<g>
		<path class="st0" d="M329.4,160.3l4.7-0.5l0.3,9.6c-12.4,1.7-23,2.6-31.8,2.6c-11.7,0-20-3.4-24.9-10.2
			c-4.9-6.8-7.3-17.4-7.3-31.7c0-28.6,11.4-42.9,34.1-42.9c11,0,19.2,3.1,24.6,9.2c5.4,6.1,8.1,15.8,8.1,28.9l-0.7,9.3h-53.8
			c0,9,1.6,15.7,4.9,20c3.3,4.3,8.9,6.5,17,6.5C312.8,161.2,321.1,160.9,329.4,160.3z M325,124.9c0-10-1.6-17.1-4.8-21.2
			c-3.2-4.1-8.4-6.2-15.6-6.2c-7.2,0-12.7,2.2-16.3,6.5c-3.6,4.3-5.5,11.3-5.6,20.9H325z"/>
		<path class="st0" d="M354.3,170.4v-117h12.2v117H354.3z"/>
		<path class="st0" d="M443.5,113.5v40.1c0,4.1,10.1,4.9,10.1,4.9l-0.6,10.8c-8.6,0-15.7,0.7-20-3.4c-9.8,4.3-19.5,6.1-29.3,6.1
			c-7.5,0-13.2-2.1-17.1-6.4c-3.9-4.2-5.9-10.3-5.9-18.3c0-7.9,2-13.8,6-17.5c4-3.7,10.3-6.1,18.9-6.9l25.6-2.4v-7
			c0-5.5-1.2-9.5-3.6-11.9c-2.4-2.4-5.7-3.6-9.8-3.6l-32.1,0V87.2h31.3c9.2,0,15.9,2.1,20.1,6.4C441.4,97.8,443.5,104.5,443.5,113.5
			z M393.3,146.7c0,10,4.1,15,12.4,15c7.4,0,14.7-1.2,21.8-3.7l3.7-1.3v-26.9l-24.1,2.3c-4.9,0.4-8.4,1.8-10.6,4.2
			C394.4,138.7,393.3,142.2,393.3,146.7z"/>
		<path class="st0" d="M491.2,98.2c-11.8,0-17.8,4.1-17.8,12.4c0,3.8,1.4,6.5,4.1,8.1c2.7,1.6,8.9,3.2,18.6,4.9
			c9.7,1.7,16.5,4,20.5,7.1c4,3,6,8.7,6,17.1c0,8.4-2.7,14.5-8.1,18.4c-5.4,3.9-13.2,5.9-23.6,5.9c-6.7,0-29.2-2.5-29.2-2.5
			l0.7-10.6c12.9,1.2,22.3,2.2,28.6,2.2c6.3,0,11.1-1,14.4-3c3.3-2,5-5.4,5-10.1c0-4.7-1.4-7.9-4.2-9.6c-2.8-1.7-9-3.3-18.6-4.8
			c-9.6-1.5-16.4-3.7-20.4-6.7c-4-2.9-6-8.4-6-16.3c0-7.9,2.8-13.8,8.4-17.6c5.6-3.8,12.6-5.7,20.9-5.7c6.6,0,29.6,1.7,29.6,1.7
			v10.7C508.1,99,498.2,98.2,491.2,98.2z"/>
		<path class="st0" d="M581.7,99.5h-25.9v39c0,9.3,0.7,15.5,2,18.4c1.4,2.9,4.6,4.4,9.7,4.4l14.5-1l0.8,10.1
			c-7.3,1.2-12.8,1.8-16.6,1.8c-8.5,0-14.3-2.1-17.6-6.2c-3.3-4.1-4.9-12-4.9-23.6V99.5h-11.6V88.9h11.6V63.9h12.1v24.9h25.9V99.5z"
			/>
		<path class="st0" d="M598.7,70.4V56.3h12.2v14.2H598.7z M598.7,170.4V88.9h12.2v81.5H598.7z"/>
		<path class="st0" d="M663.8,87.2c3.6,0,9.7,0.7,18.3,2l3.9,0.5l-0.5,9.9c-8.7-1-15.1-1.5-19.2-1.5c-9.2,0-15.5,2.2-18.8,6.6
			c-3.3,4.4-5,12.6-5,24.5c0,11.9,1.5,20.2,4.6,24.9c3.1,4.7,9.5,7,19.3,7l19.2-1.5l0.5,10.1c-10.1,1.5-17.7,2.3-22.7,2.3
			c-12.7,0-21.5-3.3-26.3-9.8c-4.8-6.5-7.3-17.5-7.3-33c0-15.5,2.6-26.4,7.8-32.6C643,90.4,651.7,87.2,663.8,87.2z"/>
	</g>
	<path class="st0" d="M236.6,123.5c0-19.8-12.3-37.2-30.8-43.9c0.8-4.2,1.2-8.4,1.2-12.7C207,30,177,0,140.2,0
		C118.6,0,98.6,10.3,86,27.7c-6.2-4.8-13.8-7.4-21.7-7.4c-19.6,0-35.5,15.9-35.5,35.5c0,4.3,0.8,8.5,2.2,12.4
		C12.6,74.8,0,92.5,0,112.2c0,19.9,12.4,37.3,30.9,44c-0.8,4.1-1.2,8.4-1.2,12.7c0,36.8,29.9,66.7,66.7,66.7
		c21.6,0,41.6-10.4,54.1-27.8c6.2,4.9,13.8,7.6,21.7,7.6c19.6,0,35.5-15.9,35.5-35.5c0-4.3-0.8-8.5-2.2-12.4
		C223.9,160.9,236.6,143.2,236.6,123.5z M91.6,34.8c10.9-15.9,28.9-25.4,48.1-25.4c32.2,0,58.4,26.2,58.4,58.4
		c0,3.9-0.4,7.7-1.1,11.5l-52.2,45.8L93,101.5L82.9,79.9L91.6,34.8z M65.4,29c6.2,0,12.1,2,17,5.7l-7.8,40.3l-35.5-8.4
		c-1.1-3.1-1.7-6.3-1.7-9.7C37.4,41.6,49.9,29,65.4,29z M9.1,112.3c0-16.7,11-31.9,26.9-37.2L75,84.4l9.1,19.5l-49.8,45
		C19.2,143.1,9.1,128.6,9.1,112.3z M145.2,200.9c-10.9,16.1-29,25.6-48.4,25.6c-32.3,0-58.6-26.3-58.6-58.5c0-4,0.4-7.9,1.1-11.7
		l50.9-46l52,23.7l11.5,22L145.2,200.9z M171.2,206.6c-6.1,0-12-2-16.9-5.8l7.7-40.2l35.4,8.3c1.1,3.1,1.7,6.3,1.7,9.7
		C199.2,194.1,186.6,206.6,171.2,206.6z M200.5,160.5l-39-9.1l-10.4-19.8l51-44.7c15.1,5.7,25.2,20.2,25.2,36.5
		C227.4,140.1,216.4,155.3,200.5,160.5z"/>
</g>
</svg>
